<?xml version="1.0" encoding="UTF-8" standalone="no"?>
<!-- Created with Inkscape (http://www.inkscape.org/) -->

<svg
   width="297mm"
   height="210mm"
   viewBox="0 0 297 210"
   version="1.1"
   id="svg5"
   inkscape:version="1.1 (c68e22c387, 2021-05-23)"
   sodipodi:docname="explore-outdoors.svg"
   xmlns:inkscape="http://www.inkscape.org/namespaces/inkscape"
   xmlns:sodipodi="http://sodipodi.sourceforge.net/DTD/sodipodi-0.dtd"
   xmlns="http://www.w3.org/2000/svg"
   xmlns:svg="http://www.w3.org/2000/svg">
  <sodipodi:namedview
     id="namedview7"
     pagecolor="#ffffff"
     bordercolor="#999999"
     borderopacity="1"
     inkscape:pageshadow="0"
     inkscape:pageopacity="0"
     inkscape:pagecheckerboard="0"
     inkscape:document-units="mm"
     showgrid="false"
     inkscape:zoom="1.5219183"
     inkscape:cx="567.37605"
     inkscape:cy="410.3374"
     inkscape:window-width="1920"
     inkscape:window-height="1001"
     inkscape:window-x="-9"
     inkscape:window-y="-9"
     inkscape:window-maximized="1"
     inkscape:current-layer="layer1" />
  <defs
     id="defs2">
    <rect
       x="322.10233"
       y="431.31299"
       width="98.151352"
       height="71.885498"
       id="rect5575" />
    <rect
       x="384.31094"
       y="431.31299"
       width="168.65443"
       height="106.44583"
       id="rect3943" />
    <clipPath
       clipPathUnits="userSpaceOnUse"
       id="clipPath12970">
      <path
         id="path12972"
         d="m 207.38125,508.43926 c 0.33252,-0.37279 0.59705,-0.83809 0.59705,-1.05046 0,-0.20979 0.18102,-0.81113 0.40217,-1.33664 0.2213,-0.52551 0.40217,-1.06622 0.40217,-1.20157 0,-0.13538 0.17604,-0.58991 0.39074,-1.01021 0.54787,-1.0714 1.0167,-2.14103 1.14572,-2.61411 0.0602,-0.2213 0.42698,-0.97095 0.81477,-1.66621 0.38783,-0.69519 0.70509,-1.32859 0.70509,-1.40752 0,-0.079 0.0636,-0.14344 0.14113,-0.14344 0.15188,0 0.34826,0.45678 0.6922,1.60861 0.20672,0.69261 0.24009,0.72188 0.77362,0.67804 0.30682,-0.0269 0.73155,-0.1699 0.94421,-0.32178 0.21287,-0.15188 0.52142,-0.35477 0.68614,-0.45111 0.16492,-0.0963 0.2516,-0.22322 0.19292,-0.2819 -0.0587,-0.0587 0.86298,-1.08497 2.0479,-2.28082 2.29374,-2.31495 2.462,-2.53291 2.72966,-3.5357 0.46201,-1.73056 0.91998,-2.06466 3.08708,-2.25285 0.73289,-0.0636 1.62226,-0.21286 1.9763,-0.33176 0.354,-0.11889 0.90651,-0.18333 1.22768,-0.14382 0.38775,0.0479 0.64905,-0.008 0.77784,-0.16108 0.12503,-0.15035 0.354,-0.20174 0.64291,-0.14383 0.25083,0.0502 0.49741,0.0115 0.55851,-0.0875 0.0602,-0.0974 0.22283,-0.17718 0.36128,-0.17718 0.36013,0 2.14201,-0.82119 2.14201,-0.98714 0,-0.0763 0.1097,-0.13883 0.24355,-0.13883 0.19982,0 0.22858,0.17374 0.15993,0.96515 -0.0513,0.59436 -0.023,0.96515 0.0782,0.96515 0.089,0 0.15649,0.163 0.15035,0.36206 -0.0115,0.34518 -0.0192,0.3471 -0.14958,0.0403 -0.14957,-0.34825 -0.14459,-0.37778 -0.23166,1.36732 -0.0192,0.39811 -0.089,0.90483 -0.15341,1.12602 l -0.11736,0.40217 0.32831,-0.40217 0.32829,-0.40214 0.003,0.68364 c 0.003,0.7105 -0.10586,0.82367 -0.46654,0.4826 -0.17565,-0.16606 -0.18025,-0.13768 -0.0269,0.1607 0.21439,0.41663 0.53272,0.46369 0.86809,0.12849 0.12847,-0.12849 0.26809,-0.19944 0.30988,-0.15725 0.0418,0.0418 0.0414,-0.28727 -0.001,-0.73155 -0.0517,-0.53801 -0.0192,-0.80783 0.10355,-0.80783 0.1166,0 0.18141,-0.38986 0.18141,-1.0951 v -1.09509 h 0.80783 c 0.49798,0 0.88957,-0.089 1.02093,-0.23204 0.22359,-0.24315 0.90586,-2.31123 0.90586,-2.74523 0,-0.36091 -0.45164,-0.70309 -1.29779,-0.9838 l -0.73481,-0.24393 -0.20787,0.70413 c -0.11429,0.38728 -0.26541,0.70412 -0.33598,0.70412 -0.0705,0 -0.0901,0.14459 -0.0437,0.32178 0.0464,0.17681 0.0115,0.32179 -0.0767,0.32179 -0.24738,0 -0.37394,-0.69534 -0.15226,-0.83629 0.13424,-0.0851 0.10739,-0.12465 -0.0867,-0.12656 -0.15496,-10e-4 -0.28152,-0.0748 -0.28152,-0.16339 0,-0.0886 0.0809,-0.1607 0.17949,-0.1607 0.10203,0 0.14229,-0.14267 0.0936,-0.32946 -0.0614,-0.23434 0.0675,-0.46952 0.4462,-0.81412 0.31719,-0.2888 0.505,-0.59424 0.46458,-0.75617 -0.0817,-0.32753 0.79456,-1.30849 1.46697,-1.64235 0.26348,-0.13078 1.38036,-0.83514 2.48178,-1.56503 1.10139,-0.7299 2.05868,-1.32709 2.12722,-1.32709 0.0686,0 0.24776,0.25887 0.39779,0.57548 0.15035,0.31642 0.51996,0.76894 0.82176,1.00539 0.34556,0.27077 0.77788,0.90613 1.168,1.71669 0.4951,1.02874 0.77033,1.39317 1.37197,1.81659 0.57169,0.4024 0.7243,0.59577 0.63486,0.80433 -0.20136,0.47006 -0.27346,1.13794 -0.16761,1.55936 0.13616,0.54301 0.44122,0.51715 0.38277,-0.0306 -0.0345,-0.31029 0.0345,-0.45338 0.23511,-0.49438 0.35016,-0.0718 0.38732,0.54645 0.061,1.0159 -0.1469,0.21094 -0.17527,0.43853 -0.0855,0.67923 0.16492,0.44202 0.24699,0.44582 0.90954,0.0422 0.41061,-0.25046 0.52279,-0.42684 0.52279,-0.82233 0,-0.5073 -0.38533,-1.88077 -0.69495,-2.47708 -0.092,-0.17681 -0.47428,-0.94628 -0.84975,-1.70963 -0.37548,-0.76334 -0.89194,-1.63192 -1.14772,-1.93035 -0.64207,-0.7488 -1.48964,-2.17818 -1.49152,-2.51534 -0.002,-0.39704 -0.76326,-1.98375 -1.14886,-2.39538 -0.28304,-0.30223 -0.298,-0.39516 -0.11583,-0.72388 0.11506,-0.20749 0.2144,-0.41333 0.22054,-0.45756 0.0418,-0.29455 0.4534,-0.80429 0.64957,-0.80429 0.18679,0 0.21709,-0.15725 0.14575,-0.75487 -0.0498,-0.41521 -0.12312,-0.80714 -0.16224,-0.871 -0.0395,-0.0636 0.002,-0.14076 0.0936,-0.17106 0.25696,-0.0855 -0.19215,-0.92016 -0.56533,-1.05014 -0.17681,-0.0618 -0.37356,-0.0985 -0.43676,-0.0821 -0.0633,0.0153 -0.3168,-0.0518 -0.56303,-0.15187 -0.24622,-0.10016 -0.68893,-0.16531 -0.98344,-0.14574 -0.32562,0.023 -0.65661,-0.0733 -0.84453,-0.24355 -0.17337,-0.15687 -0.30913,-0.19944 -0.30913,-0.097 0,0.10046 -0.28842,0.32945 -0.64085,0.50948 -0.71563,0.36512 -0.91468,0.82283 -0.65492,1.50609 0.19906,0.52352 0.0782,0.80825 -0.78166,1.84394 -0.57151,0.68816 -0.58478,0.69388 -1.46145,0.62622 -1.81568,-0.13998 -2.92738,-0.89707 -5.79615,-3.94683 l -0.76864,-0.81715 0.75011,-1.09203 c 0.50335,-0.73285 0.88194,-1.11891 1.15098,-1.1738 0.52183,-0.10662 1.12478,-0.50975 1.12478,-0.75229 0,-0.10509 0.2167,-0.36052 0.48187,-0.56805 0.49644,-0.38851 1.12674,-1.8462 1.12674,-2.60579 0,-0.21669 0.18102,-0.60885 0.40217,-0.87172 0.22129,-0.26272 0.40213,-0.54676 0.40213,-0.63083 0,-0.084 0.15379,-0.29072 0.34134,-0.45935 0.18793,-0.16876 0.55658,-0.68649 0.81965,-1.15098 0.2631,-0.4645 0.53226,-0.84451 0.59823,-0.84451 0.34134,0 1.43628,-2.75505 2.42928,-6.11271 0.19637,-0.66354 0.68429,-1.82172 1.08447,-2.57375 0.40026,-0.75203 1.01751,-1.91022 1.37177,-2.57376 0.35439,-0.66356 0.7052,-1.2306 0.77984,-1.26006 0.0748,-0.0307 0.13577,-0.14497 0.13577,-0.25697 0,-0.2654 0.46036,-1.18506 0.65278,-1.30396 0.0825,-0.051 0.22512,-0.23318 0.31717,-0.40536 0.1653,-0.30912 -0.0989,-0.31295 -22.51882,-0.31295 H 195.9131 v 61.93121 h 10.8703 l 0.59707,-0.66926 z m 6.34624,-11.39374 c -0.40462,-0.47256 -0.20365,-1.71895 0.36283,-2.25302 0.59183,-0.55761 3.92275,-3.35908 4.34805,-3.657 0.37816,-0.26464 0.31794,-0.14114 -1.68132,3.4543 -1.428,2.56832 -2.31668,3.28867 -3.02978,2.45587 z m -0.69925,-0.89942 c 0.0537,-0.13999 0.0974,-0.28458 0.0974,-0.32178 0,-0.0384 0.0656,-0.0671 0.14574,-0.0671 0.0802,0 0.10778,0.14459 0.0617,0.32178 -0.0464,0.17681 -0.15572,0.32178 -0.24354,0.32178 -0.0875,0 -0.11544,-0.11429 -0.0617,-0.25428 z m 2.12772,-2.68119 c 0.0653,-0.11046 0.27538,-0.41824 0.46714,-0.68368 0.19176,-0.2654 0.73132,-1.24265 1.19934,-2.1716 1.10802,-2.19927 1.07239,-2.15923 1.57086,-1.76723 0.22322,0.17567 0.49599,0.31949 0.60595,0.31949 0.11007,0 0.28649,0.10431 0.39258,0.23203 0.15763,0.18985 0.0345,0.38863 -0.66397,1.08678 -0.77136,0.76947 -3.51832,3.16892 -3.64089,3.18051 -0.0269,0.002 0.003,-0.0859 0.069,-0.19638 z m 16.27904,-3.04992 c 0.11544,-0.11544 0.19023,-0.12503 0.19023,-0.023 0,0.21477 -0.19023,0.40493 -0.29762,0.29762 -0.0457,-0.0457 0.002,-0.16876 0.10739,-0.27346 z m 0.30452,-0.76944 c -0.0464,-0.1768 -0.0192,-0.32178 0.0618,-0.32178 0.0802,0 0.14574,0.14459 0.14574,0.32178 0,0.17681 -0.0269,0.32179 -0.0618,0.32179 -0.0345,0 -0.0993,-0.14459 -0.14575,-0.32179 z m 0.2213,-0.8043 c 0.008,-0.36819 0.0192,-0.37509 0.14728,-0.0806 0.0759,0.17681 0.14229,0.46649 0.14727,0.64345 0.008,0.2654 -0.0192,0.2796 -0.14727,0.0806 -0.0859,-0.1327 -0.15188,-0.42227 -0.14728,-0.64345 z m -9.18046,-0.76411 c 0.001,-0.0664 0.0985,-0.39702 0.21632,-0.73484 0.21899,-0.62857 2.25819,-2.84435 2.61786,-2.84435 0.16798,0 0.86317,1.20713 0.86317,1.49854 0,0.0606 -0.20289,0.11007 -0.45042,0.11007 -0.56021,0 -0.83647,0.26349 -0.83647,0.79752 0,0.35822 -0.14076,0.4673 -1.08583,0.84242 -1.19592,0.4747 -1.32819,0.50773 -1.32463,0.33061 z m -3.41377,-0.90529 c -0.32792,-0.36473 -0.59946,-0.79386 -0.60321,-0.95372 -0.003,-0.15993 0.29684,-0.88035 0.66791,-1.60116 0.48827,-0.94836 0.68364,-1.53052 0.70696,-2.10647 0.023,-0.53817 0.11583,-0.84266 0.29034,-0.94038 0.14191,-0.0793 0.25812,-0.2746 0.25812,-0.43327 0,-0.15879 0.14229,-0.41736 0.31564,-0.57445 0.17374,-0.15725 0.3943,-0.5239 0.49038,-0.81501 0.0959,-0.2911 0.2796,-0.56965 0.4082,-0.61898 0.30644,-0.11774 0.30605,0.88845 -0.002,4.35917 -0.32946,3.71377 -0.6484,4.64921 -1.51649,4.4457 -0.23088,-0.0541 -0.68821,-0.3968 -1.01617,-0.7615 z m 4.30414,-1.74885 c 0.31986,-1.00424 0.94486,-2.52774 1.03764,-2.5295 0.0441,-6.2e-4 0.24507,0.30183 0.44631,0.67225 l 0.36589,0.67367 -0.92384,0.93359 c -0.5081,0.51347 -0.97333,0.93359 -1.03378,0.93359 -0.0606,0 -0.0115,-0.30759 0.10778,-0.68368 z m 5.14594,-3.48745 c -0.0506,-0.0817 0.0307,-0.17221 0.18026,-0.20097 0.2516,-0.0483 0.25046,-0.074 -0.0153,-0.33942 -0.1607,-0.1607 -0.41053,-0.24777 -0.56793,-0.19791 -0.18218,0.0579 -0.50116,-0.11544 -0.90801,-0.49306 -0.34479,-0.32025 -1.13583,-0.92846 -1.75768,-1.35157 -0.62189,-0.42307 -1.22795,-0.88641 -1.34681,-1.02962 -0.13884,-0.16723 -0.46764,-0.26042 -0.92024,-0.26042 -0.47562,0 -0.7042,-0.069 -0.7042,-0.2121 0,-0.60816 0.53038,-1.86469 0.9614,-2.27763 0.26732,-0.2562 0.48635,-0.58918 0.48635,-0.73975 0,-0.44635 0.52666,-0.93087 1.06514,-0.97985 0.37625,-0.0345 0.67874,0.0967 1.20644,0.52229 0.38741,0.31258 0.93811,0.73074 1.22384,0.92969 0.28574,0.19904 0.95188,0.89082 1.48036,1.53757 0.5285,0.64674 1.21457,1.29629 1.52465,1.44345 0.30989,0.14728 0.60639,0.33636 0.65852,0.42081 0.12848,0.2075 -0.29417,1.41201 -0.84024,2.39473 -0.35707,0.64284 -0.54458,0.81776 -0.92987,0.86793 -0.2654,0.0345 -0.53261,0.0744 -0.59375,0.0886 -0.061,0.0153 -0.15264,-0.041 -0.20289,-0.12273 z"
         style="stroke-width:0.160861" />
    </clipPath>
  </defs>
  <g
     inkscape:label="Calque 1"
     inkscape:groupmode="layer"
     id="layer1">
    <text
       xml:space="preserve"
       transform="scale(0.26458333)"
       id="text3941"
       style="font-style:normal;font-weight:normal;font-size:40px;line-height:1.25;font-family:sans-serif;white-space:pre;shape-inside:url(#rect3943);fill:#000000;fill-opacity:1;stroke:none" />
    <text
       xml:space="preserve"
       transform="scale(0.26458333)"
       id="text5573"
       style="font-style:normal;font-weight:normal;font-size:40px;line-height:1.25;font-family:sans-serif;white-space:pre;shape-inside:url(#rect5575);fill:#000000;fill-opacity:1;stroke:none" />
    <text
       xml:space="preserve"
       style="font-style:normal;font-variant:normal;font-weight:normal;font-stretch:normal;font-size:39.6608px;line-height:1.25;font-family:'HELLO MIAMI';-inkscape-font-specification:'HELLO MIAMI, Normal';font-variant-ligatures:normal;font-variant-caps:normal;font-variant-numeric:normal;font-variant-east-asian:normal;fill:#000000;fill-opacity:1;stroke:none;stroke-width:0.991523"
       x="1.3336262"
       y="83.28968"
       id="text7179"><tspan
         sodipodi:role="line"
         id="tspan7177"
         style="font-style:normal;font-variant:normal;font-weight:normal;font-stretch:normal;font-size:39.6608px;font-family:'HELLO MIAMI';-inkscape-font-specification:'HELLO MIAMI, Normal';font-variant-ligatures:normal;font-variant-caps:normal;font-variant-numeric:normal;font-variant-east-asian:normal;stroke-width:0.991523"
         x="1.3336262"
         y="83.28968" /></text>
    <text
       xml:space="preserve"
       style="font-style:normal;font-variant:normal;font-weight:normal;font-stretch:normal;font-size:24.567px;line-height:1.25;font-family:'Sports tfb';-inkscape-font-specification:'Sports tfb, Normal';font-variant-ligatures:normal;font-variant-caps:normal;font-variant-numeric:normal;font-variant-east-asian:normal;fill:#000000;fill-opacity:1;stroke:none;stroke-width:0.614177"
       x="126.86253"
       y="115.01858"
       id="text1818"
       transform="scale(1.0103487,0.9897573)"><tspan
         sodipodi:role="line"
         id="tspan1816"
         style="font-style:normal;font-variant:normal;font-weight:normal;font-stretch:normal;font-size:24.567px;font-family:'Sports tfb';-inkscape-font-specification:'Sports tfb, Normal';font-variant-ligatures:normal;font-variant-caps:normal;font-variant-numeric:normal;font-variant-east-asian:normal;stroke-width:0.614177"
         x="126.86253"
         y="115.01858">-</tspan></text>
    <text
       xml:space="preserve"
       style="font-style:normal;font-weight:normal;font-size:10.5833px;line-height:1.25;font-family:sans-serif;fill:#000000;fill-opacity:1;stroke:none;stroke-width:0.264583"
       x="159.05983"
       y="79.91787"
       id="text12454"><tspan
         sodipodi:role="line"
         id="tspan12452"
         style="stroke-width:0.264583"
         x="159.05983"
         y="79.91787" /></text>
    <text
       xml:space="preserve"
       style="font-style:normal;font-variant:normal;font-weight:normal;font-stretch:normal;font-size:17.9539px;line-height:1.25;font-family:'HELLO MIAMI';-inkscape-font-specification:'HELLO MIAMI, Normal';font-variant-ligatures:normal;font-variant-caps:normal;font-variant-numeric:normal;font-variant-east-asian:normal;fill:#000000;fill-opacity:1;stroke:none;stroke-width:0.448852"
       x="15.578184"
       y="110.62104"
       id="text25250"
       transform="scale(0.97953627,1.0208912)"><tspan
         sodipodi:role="line"
         id="tspan25248"
         style="font-style:normal;font-variant:normal;font-weight:normal;font-stretch:normal;font-size:17.9539px;font-family:'HELLO MIAMI';-inkscape-font-specification:'HELLO MIAMI, Normal';font-variant-ligatures:normal;font-variant-caps:normal;font-variant-numeric:normal;font-variant-east-asian:normal;stroke-width:0.448852"
         x="15.578184"
         y="110.62104">E</tspan></text>
    <text
       xml:space="preserve"
       style="font-style:normal;font-variant:normal;font-weight:normal;font-stretch:normal;font-size:17.9539px;line-height:1.25;font-family:'HELLO MIAMI';-inkscape-font-specification:'HELLO MIAMI, Normal';font-variant-ligatures:normal;font-variant-caps:normal;font-variant-numeric:normal;font-variant-east-asian:normal;fill:#000000;fill-opacity:1;stroke:none;stroke-width:0.448852"
       x="32.342926"
       y="107.25899"
       id="text27958"
       transform="scale(0.97953629,1.0208912)"><tspan
         sodipodi:role="line"
         id="tspan27956"
         style="font-style:normal;font-variant:normal;font-weight:normal;font-stretch:normal;font-size:17.9539px;font-family:'HELLO MIAMI';-inkscape-font-specification:'HELLO MIAMI, Normal';font-variant-ligatures:normal;font-variant-caps:normal;font-variant-numeric:normal;font-variant-east-asian:normal;stroke-width:0.448852"
         x="32.342926"
         y="107.25899">x</tspan></text>
    <text
       xml:space="preserve"
       style="font-size:17.9539px;line-height:1.25;font-family:'HELLO MIAMI';-inkscape-font-specification:'HELLO MIAMI, Normal';stroke-width:0.448852"
       x="47.758736"
       y="107.80672"
       id="text32826"
       transform="scale(0.9795363,1.0208912)"><tspan
         sodipodi:role="line"
         id="tspan32824"
         style="stroke-width:0.448852"
         x="47.758736"
         y="107.80672">p</tspan></text>
    <text
       xml:space="preserve"
       style="font-size:17.9539px;line-height:1.25;font-family:'HELLO MIAMI';-inkscape-font-specification:'HELLO MIAMI, Normal';stroke-width:0.448852"
       x="66.186584"
       y="108.93005"
       id="text34060"
       transform="scale(0.9795363,1.0208912)"><tspan
         sodipodi:role="line"
         id="tspan34058"
         style="stroke-width:0.448852"
         x="66.186584"
         y="108.93005">l</tspan></text>
    <text
       xml:space="preserve"
       style="font-size:17.9539px;line-height:1.25;font-family:'HELLO MIAMI';-inkscape-font-specification:'HELLO MIAMI, Normal';stroke-width:0.448852"
       x="76.444931"
       y="106.24126"
       id="text35108"
       transform="scale(0.97953629,1.0208912)"><tspan
         sodipodi:role="line"
         id="tspan35106"
         style="stroke-width:0.448852"
         x="76.444931"
         y="106.24126">o</tspan></text>
    <text
       xml:space="preserve"
       style="font-size:17.9539px;line-height:1.25;font-family:'HELLO MIAMI';-inkscape-font-specification:'HELLO MIAMI, Normal';stroke-width:0.448852"
       x="90.352036"
       y="107.31159"
       id="text35772"
       transform="scale(0.97953629,1.0208912)"><tspan
         sodipodi:role="line"
         id="tspan35770"
         style="stroke-width:0.448852"
         x="90.352036"
         y="107.31159">r</tspan></text>
    <text
       xml:space="preserve"
       style="font-size:17.9539px;line-height:1.25;font-family:'HELLO MIAMI';-inkscape-font-specification:'HELLO MIAMI, Normal';stroke-width:0.448852"
       x="105.19291"
       y="106.97148"
       id="text36490"
       transform="scale(0.97953629,1.0208912)"><tspan
         sodipodi:role="line"
         id="tspan36488"
         style="stroke-width:0.448852"
         x="105.19291"
         y="106.97148">e</tspan></text>
    <text
       xml:space="preserve"
       style="font-size:17.9539px;line-height:1.25;font-family:'HELLO MIAMI';-inkscape-font-specification:'HELLO MIAMI, Normal';stroke-width:0.448852"
       x="178.16713"
       y="112.00616"
       id="text38210"
       transform="scale(0.97953627,1.0208912)"><tspan
         sodipodi:role="line"
         id="tspan38208"
         style="stroke-width:0.448852"
         x="178.16713"
         y="112.00616">O</tspan></text>
    <text
       xml:space="preserve"
       style="font-size:17.9539px;line-height:1.25;font-family:'HELLO MIAMI';-inkscape-font-specification:'HELLO MIAMI, Normal';stroke-width:0.448852"
       x="196.06593"
       y="106.18077"
       id="text39402"
       transform="scale(0.97953627,1.0208912)"><tspan
         sodipodi:role="line"
         id="tspan39400"
         style="stroke-width:0.448852"
         x="196.06593"
         y="106.18077">u</tspan></text>
    <text
       xml:space="preserve"
       style="font-size:17.9539px;line-height:1.25;font-family:'HELLO MIAMI';-inkscape-font-specification:'HELLO MIAMI, Normal';stroke-width:0.448852"
       x="212.44954"
       y="109.46824"
       id="text40218"
       transform="scale(0.97953627,1.0208912)"><tspan
         sodipodi:role="line"
         id="tspan40216"
         style="stroke-width:0.448852"
         x="212.44954"
         y="109.46824">t</tspan></text>
    <text
       xml:space="preserve"
       style="font-size:17.9539px;line-height:1.25;font-family:'HELLO MIAMI';-inkscape-font-specification:'HELLO MIAMI, Normal';stroke-width:0.448852"
       x="224.48506"
       y="109.63919"
       id="text40954"
       transform="scale(0.97953627,1.0208912)"><tspan
         sodipodi:role="line"
         id="tspan40952"
         style="stroke-width:0.448852"
         x="224.48506"
         y="109.63919">d</tspan></text>
    <text
       xml:space="preserve"
       style="font-size:17.9539px;line-height:1.25;font-family:'HELLO MIAMI';-inkscape-font-specification:'HELLO MIAMI, Normal';stroke-width:0.448852"
       x="242.97218"
       y="105.98792"
       id="text41708"
       transform="scale(0.97953627,1.0208912)"><tspan
         sodipodi:role="line"
         id="tspan41706"
         style="stroke-width:0.448852"
         x="242.97218"
         y="105.98792">o</tspan></text>
    <text
       xml:space="preserve"
       style="font-size:17.9539px;line-height:1.25;font-family:'HELLO MIAMI';-inkscape-font-specification:'HELLO MIAMI, Normal';stroke-width:0.448852"
       x="257.62051"
       y="105.98792"
       id="text42648"
       transform="scale(0.97953627,1.0208912)"><tspan
         sodipodi:role="line"
         id="tspan42646"
         style="stroke-width:0.448852"
         x="257.62051"
         y="105.98792">o</tspan></text>
    <text
       xml:space="preserve"
       style="font-size:17.9539px;line-height:1.25;font-family:'HELLO MIAMI';-inkscape-font-specification:'HELLO MIAMI, Normal';stroke-width:0.448852"
       x="272.91644"
       y="106.04489"
       id="text43360"
       transform="scale(0.97953627,1.0208912)"><tspan
         sodipodi:role="line"
         id="tspan43358"
         style="stroke-width:0.448852"
         x="272.91644"
         y="106.04489">r</tspan></text>
    <text
       xml:space="preserve"
       style="font-size:17.9539px;line-height:1.25;font-family:'HELLO MIAMI';-inkscape-font-specification:'HELLO MIAMI, Normal';stroke-width:0.448852"
       x="284.85178"
       y="106.18077"
       id="text44114"
       transform="scale(0.97953627,1.0208912)"><tspan
         sodipodi:role="line"
         id="tspan44112"
         style="stroke-width:0.448852"
         x="284.85178"
         y="106.18077">s</tspan></text>
    <text
       xml:space="preserve"
       style="font-style:normal;font-variant:normal;font-weight:normal;font-stretch:normal;font-size:14.3684px;line-height:1.25;font-family:'Sports tfb';-inkscape-font-specification:'Sports tfb, Normal';font-variant-ligatures:normal;font-variant-caps:normal;font-variant-numeric:normal;font-variant-east-asian:normal;stroke-width:0.359209"
       x="-88.591393"
       y="41.085541"
       id="text70489"
       transform="rotate(-75.296033)"><tspan
         sodipodi:role="line"
         id="tspan70487"
         style="font-style:normal;font-variant:normal;font-weight:normal;font-stretch:normal;font-size:14.3684px;font-family:'Sports tfb';-inkscape-font-specification:'Sports tfb, Normal';font-variant-ligatures:normal;font-variant-caps:normal;font-variant-numeric:normal;font-variant-east-asian:normal;stroke-width:0.359209"
         x="-88.591393"
         y="41.085541">i</tspan></text>
    <text
       xml:space="preserve"
       style="font-style:normal;font-variant:normal;font-weight:normal;font-stretch:normal;font-size:13.497px;line-height:1.25;font-family:SKATE;-inkscape-font-specification:'SKATE, Normal';font-variant-ligatures:normal;font-variant-caps:normal;font-variant-numeric:normal;font-variant-east-asian:normal;stroke-width:0.337425"
       x="266.75336"
       y="101.3165"
       id="text74055"><tspan
         sodipodi:role="line"
         id="tspan74053"
         style="font-style:normal;font-variant:normal;font-weight:normal;font-stretch:normal;font-size:13.497px;font-family:SKATE;-inkscape-font-specification:'SKATE, Normal';font-variant-ligatures:normal;font-variant-caps:normal;font-variant-numeric:normal;font-variant-east-asian:normal;stroke-width:0.337425"
         x="266.75336"
         y="101.3165">รง</tspan></text>
    <text
       xml:space="preserve"
       style="font-style:normal;font-variant:normal;font-weight:normal;font-stretch:normal;font-size:10.5833px;line-height:1.25;font-family:GIMNASIA;-inkscape-font-specification:'GIMNASIA, Normal';font-variant-ligatures:normal;font-variant-caps:normal;font-variant-numeric:normal;font-variant-east-asian:normal;stroke-width:0.264583"
       x="91.075119"
       y="102.96243"
       id="text272"><tspan
         sodipodi:role="line"
         id="tspan270"
         style="font-style:normal;font-variant:normal;font-weight:normal;font-stretch:normal;font-size:10.5833px;font-family:GIMNASIA;-inkscape-font-specification:'GIMNASIA, Normal';font-variant-ligatures:normal;font-variant-caps:normal;font-variant-numeric:normal;font-variant-east-asian:normal;stroke-width:0.264583"
         x="91.075119"
         y="102.96243">z</tspan></text>
    <text
       xml:space="preserve"
       style="font-style:normal;font-variant:normal;font-weight:normal;font-stretch:normal;font-size:11.809px;line-height:1.25;font-family:'Sports tfb';-inkscape-font-specification:'Sports tfb, Normal';font-variant-ligatures:normal;font-variant-caps:normal;font-variant-numeric:normal;font-variant-east-asian:normal;stroke-width:0.295226"
       x="192.05612"
       y="120.99683"
       id="text4108"><tspan
         sodipodi:role="line"
         id="tspan4106"
         style="font-style:normal;font-variant:normal;font-weight:normal;font-stretch:normal;font-size:11.809px;font-family:'Sports tfb';-inkscape-font-specification:'Sports tfb, Normal';font-variant-ligatures:normal;font-variant-caps:normal;font-variant-numeric:normal;font-variant-east-asian:normal;stroke-width:0.295226"
         x="192.05612"
         y="120.99683">W</tspan></text>
    <text
       xml:space="preserve"
       style="font-style:normal;font-variant:normal;font-weight:normal;font-stretch:normal;font-size:14.8722px;line-height:1.25;font-family:'Sports tfb';-inkscape-font-specification:'Sports tfb, Normal';font-variant-ligatures:normal;font-variant-caps:normal;font-variant-numeric:normal;font-variant-east-asian:normal;stroke-width:0.371806"
       x="284.78995"
       y="114.55396"
       id="text9184"><tspan
         sodipodi:role="line"
         id="tspan9182"
         style="font-style:normal;font-variant:normal;font-weight:normal;font-stretch:normal;font-size:14.8722px;font-family:'Sports tfb';-inkscape-font-specification:'Sports tfb, Normal';font-variant-ligatures:normal;font-variant-caps:normal;font-variant-numeric:normal;font-variant-east-asian:normal;stroke-width:0.371806"
         x="284.78995"
         y="114.55396">+</tspan></text>
    <path
       sodipodi:type="star"
       id="path12866"
       inkscape:flatsided="true"
       sodipodi:sides="5"
       sodipodi:cx="230.34119"
       sodipodi:cy="492.18103"
       sodipodi:r1="24.852413"
       sodipodi:r2="20.106026"
       sodipodi:arg1="0.9710789"
       sodipodi:arg2="1.5993974"
       inkscape:rounded="0"
       inkscape:randomized="0"
       d="m 244.36812,512.69658 -29.20382,-0.83549 -8.22987,-28.03266 24.11747,-16.48965 23.13529,17.8415 z"
       transform="matrix(0.26073523,0,0,0.26073523,-6.9770668,-12.657377)"
       inkscape:transform-center-x="-0.057261703"
       inkscape:transform-center-y="-0.56406508"
       style="fill:#000000"
       clip-path="url(#clipPath12970)" />
    <text
       xml:space="preserve"
       style="font-style:normal;font-variant:normal;font-weight:normal;font-stretch:normal;font-size:10.5833px;line-height:1.25;font-family:'Sports tfb';-inkscape-font-specification:'Sports tfb, Normal';font-variant-ligatures:normal;font-variant-caps:normal;font-variant-numeric:normal;font-variant-east-asian:normal;stroke-width:0.264583"
       x="262.73178"
       y="-3.5028694"
       id="text83"
       transform="rotate(22.613381)"><tspan
         sodipodi:role="line"
         id="tspan81"
         style="font-style:normal;font-variant:normal;font-weight:normal;font-stretch:normal;font-size:10.5833px;font-family:'Sports tfb';-inkscape-font-specification:'Sports tfb, Normal';font-variant-ligatures:normal;font-variant-caps:normal;font-variant-numeric:normal;font-variant-east-asian:normal;stroke-width:0.264583"
         x="262.73178"
         y="-3.5028694">5</tspan></text>
  </g>
</svg>
