<?xml version="1.0" encoding="UTF-8" standalone="no"?>

<svg
   version="1.1"
   x="0px"
   y="0px"
   viewBox="0 0 1000 1000"
   enable-background="new 0 0 1000 1000"
   xml:space="preserve"
   id="svg12"
   sodipodi:docname="clean.svg"
   inkscape:version="1.1 (1:1.1+202105261517+ce6663b3b7)"
   xmlns:inkscape="http://www.inkscape.org/namespaces/inkscape"
   xmlns:sodipodi="http://sodipodi.sourceforge.net/DTD/sodipodi-0.dtd"
   xmlns="http://www.w3.org/2000/svg"
   xmlns:svg="http://www.w3.org/2000/svg"><defs
   id="defs16" /><sodipodi:namedview
   id="namedview14"
   pagecolor="#505050"
   bordercolor="#eeeeee"
   borderopacity="1"
   inkscape:pageshadow="0"
   inkscape:pageopacity="0"
   inkscape:pagecheckerboard="0"
   showgrid="false"
   inkscape:zoom="0.66"
   inkscape:cx="499.24242"
   inkscape:cy="499.24242"
   inkscape:window-width="1920"
   inkscape:window-height="1028"
   inkscape:window-x="0"
   inkscape:window-y="26"
   inkscape:window-maximized="1"
   inkscape:current-layer="svg12" />
<g
   id="g10"
   style="fill:#808000"><g
     transform="translate(0.000000,512.000000) scale(0.100000,-0.100000)"
     id="g8"
     style="fill:#808000"><path
       d="M1889.3,4999.2c-99.5-40.2-130.1-170.3-214.3-927.9c-197.1-1758.3-135.8-3111,181.8-4102.1c89.9-275.5,313.8-723.2,474.5-949c482.1-671.6,1214.9-1180.5,2095.1-1457.9l231.5-72.7v-1067.6v-1069.5l65-65c86.1-86.1,176-89.9,264-9.6l63.1,55.5l9.6,1107.8l9.6,1105.9l126.3,181.8c172.2,248.7,246.8,376.9,380.8,652.4c331,690.7,449.6,1427.3,332.9,2102.7C5756,1375.4,5272,2167.5,4265.6,3172c-537.6,539.5-1071.4,994.9-1781.3,1523C2025.1,5037.4,2006,5047,1889.3,4999.2z"
       id="path4"
       style="fill:#808000" /><path
       d="M7920,3128c-482.1-288.9-975.8-641-1377.6-975.8c-189.4-160.7-692.6-654.3-742.4-732.8c-32.5-47.8-30.6-55.5,42.1-241.1c181.8-457.3,258.3-868.6,258.3-1383.3c-1.9-463-59.3-832.3-197.1-1228.3l-38.3-109l137.8,49.7C6617-1272.6,7160.4-800,7541.1-153.3c405.6,690.7,709.8,1716.2,866.7,2933.1c21,162.6,34.4,319.5,28.7,348.2c-19.1,86.1-99.5,149.2-189.4,149.2C8182.1,3277.2,8122.8,3250.4,7920,3128z"
       id="path6"
       style="fill:#808000" /></g></g>
</svg>
