<?xml version="1.0" encoding="utf-8"?>
<!DOCTYPE svg PUBLIC "-//W3C//DTD SVG 1.1//EN" "http://www.w3.org/Graphics/SVG/1.1/DTD/svg11.dtd">
<svg version="1.1" xmlns="http://www.w3.org/2000/svg" xmlns:xlink="http://www.w3.org/1999/xlink" x="0px" y="0px" viewBox="0 0 1000 1000" enable-background="new 0 0 1000 1000" xml:space="preserve">
<g><path d="M500,344.1c-86.1,0-155.9,69.8-155.9,155.9c0,86.1,69.8,155.9,155.9,155.9c86.1,0,155.9-69.8,155.9-155.9C655.9,413.9,586.1,344.1,500,344.1z M945.5,455.5h-47c-20.5-185.8-168.1-333.4-353.9-353.9v-47c0-24.6-19.9-44.5-44.5-44.5s-44.5,19.9-44.5,44.5v47c-185.8,20.5-333.3,168.1-353.9,353.9h-47C29.9,455.5,10,475.4,10,500c0,24.6,19.9,44.5,44.5,44.5h47c20.5,185.8,168.1,333.4,353.9,353.9v47c0,24.6,19.9,44.5,44.5,44.5s44.5-20,44.5-44.5v-47c185.8-20.5,333.3-168.1,353.9-353.9h47c24.6,0,44.5-20,44.5-44.5C990,475.4,970.1,455.5,945.5,455.5z M500,811.8c-172.2,0-311.8-139.6-311.8-311.8c0-172.2,139.6-311.8,311.8-311.8c172.2,0,311.8,139.6,311.8,311.8C811.8,672.2,672.2,811.8,500,811.8z"/></g>
</svg>
