<?xml version="1.0" encoding="utf-8"?>
<!DOCTYPE svg PUBLIC "-//W3C//DTD SVG 1.1//EN" "http://www.w3.org/Graphics/SVG/1.1/DTD/svg11.dtd">
<svg version="1.1" xmlns="http://www.w3.org/2000/svg" xmlns:xlink="http://www.w3.org/1999/xlink" x="0px" y="0px" viewBox="0 0 1000 1000" enable-background="new 0 0 1000 1000" xml:space="preserve">
<g><path d="M788.7,301.8C788.7,140.6,659.5,10,500,10c-159.5,0-288.7,130.6-288.7,291.8c0,50.7,12.8,98.3,35.3,139.9h-0.3c0,0,0.4,0.5,1.1,1.5c9.1,16.5,19.7,32,31.6,46.4c63,96.3,194.7,319.5,194.7,500.4h52.5c0,0,0-192.5,202.7-510.4c8.5-11.2,16.3-23.1,23.2-35.5c0.5-0.8,1-1.6,1.6-2.4h-0.3C775.9,400.2,788.7,352.5,788.7,301.8z M500,469.9c-91.8,0-166.2-75.2-166.2-168c0-92.8,74.4-168,166.2-168c91.8,0,166.2,75.2,166.2,168C666.2,394.6,591.8,469.9,500,469.9z"/></g>
</svg>
