<?xml version="1.0" encoding="UTF-8" standalone="no"?>

<svg
   version="1.1"
   x="0px"
   y="0px"
   viewBox="0 0 1000 1000"
   enable-background="new 0 0 1000 1000"
   xml:space="preserve"
   id="svg12"
   sodipodi:docname="disclaimer.svg"
   inkscape:version="1.1 (1:1.1+202105261517+ce6663b3b7)"
   xmlns:inkscape="http://www.inkscape.org/namespaces/inkscape"
   xmlns:sodipodi="http://sodipodi.sourceforge.net/DTD/sodipodi-0.dtd"
   xmlns="http://www.w3.org/2000/svg"
   xmlns:svg="http://www.w3.org/2000/svg"><defs
   id="defs16" /><sodipodi:namedview
   id="namedview14"
   pagecolor="#505050"
   bordercolor="#eeeeee"
   borderopacity="1"
   inkscape:pageshadow="0"
   inkscape:pageopacity="0"
   inkscape:pagecheckerboard="0"
   showgrid="false"
   inkscape:zoom="0.066"
   inkscape:cx="782.57576"
   inkscape:cy="499.24242"
   inkscape:window-width="50px"
   inkscape:window-x="0"
   inkscape:window-y="26"
   inkscape:window-maximized="1"
   inkscape:current-layer="g10" />
<g
   id="g10"
   style="fill:#fa0000;fill-opacity:1;opacity:1"><path
     d="M500,98.8l410.7,818.5H89.3L500,98.8L500,98.8z M500,10c-21.1,0-42.2,14.2-58.3,42.7L23.4,886.4C-8.6,943.4,18.7,990,84,990h832c65.4,0,92.6-46.6,60.6-103.6l0,0L558.2,52.7C542.2,24.2,521.1,10,500,10L500,10L500,10z"
     id="path4"
     style="fill:#fa0000;fill-opacity:1" /><path
     d="M561.3,806.3c0,33.8-27.4,61.3-61.3,61.3c-33.8,0-61.3-27.4-61.3-61.3c0-33.8,27.4-61.3,61.3-61.3C533.9,745,561.3,772.4,561.3,806.3z"
     id="path6"
     style="fill:#fa0000;fill-opacity:1" /><g
     id="g3216"
     transform="matrix(1,0,0,1.3334679,-0.60027151,-253.06086)"><path
       d="m 500,683.8 c -33.8,0 -61.3,-27.4 -61.3,-61.3 V 438.7 c 0,-33.8 27.4,-61.3 61.3,-61.3 33.8,0 61.3,27.4 61.3,61.3 v 183.8 c 0,33.8 -27.4,61.3 -61.3,61.3 z"
       id="path8"
       style="fill:#fa0000;fill-opacity:1" /></g></g>
</svg>
