<?xml version="1.0" encoding="utf-8"?>
<!-- Svg Vector Icons : http://www.onlinewebfonts.com/icon -->
<!DOCTYPE svg PUBLIC "-//W3C//DTD SVG 1.1//EN" "http://www.w3.org/Graphics/SVG/1.1/DTD/svg11.dtd">
<svg version="1.1" xmlns="http://www.w3.org/2000/svg" xmlns:xlink="http://www.w3.org/1999/xlink" x="0px" y="0px" viewBox="0 0 1000 1000" enable-background="new 0 0 1000 1000" xml:space="preserve">
<metadata> Svg Vector Icons : http://www.onlinewebfonts.com/icon </metadata>
<g><g><g><path d="M33.9,912c5.4,0,10.8-1.8,15.2-5.5l86.7-72.3c5.5-4.6,16.7-5.3,22.8-1.4l89.6,58.1c23.2,15.1,57.2,13.8,79.2-2.8l72.3-54.5c6-4.6,18.7-5.1,25.1-1l93.1,58.8c22.6,14.3,56.6,14.1,79.1-0.5l89.6-58.1c6.8-4.4,20.4-4.3,27.1,0.1l87.5,57.7c23,15.2,57.1,14.3,79.3-2.1l99.8-73.8c10.6-7.8,12.8-22.7,5-33.3c-7.8-10.6-22.7-12.8-33.3-5l-99.8,73.8c-6,4.4-18.5,4.8-24.8,0.6L740,793.2c-22.5-14.9-56.6-15-79.2-0.3L571.2,851c-6.9,4.4-20.9,4.5-27.8,0.2l-93.1-58.8c-23.2-14.6-57.3-13.2-79.2,3.3l-72.3,54.5c-6,4.5-18.4,5-24.7,0.9l-89.6-58.1c-23.6-15.3-57.6-13.3-79.2,4.7l-86.7,72.3c-10.1,8.4-11.5,23.4-3.1,33.5C20.3,909.1,27,912,33.9,912z"/><path d="M342.3,536.3c35,0,63.4-28.5,63.4-63.6c0-35-28.5-63.3-63.4-63.3c-34.9,0-63.4,28.3-63.4,63.3C279,507.9,307.5,536.3,342.3,536.3z"/><path d="M776.8,110.4L648.4,329l-189,114.6c-9.4,5.2-17.2,13-22.7,22.6l-147,253.3c-9.9,17-4.1,38.9,12.9,48.8c17,10.2,38.8,4.3,48.8-12.7l114.9-170.6l211-146c9.6-5.3,17.5-13.1,22.6-22.6l153.9-262c12.2-21.2,4.9-48.3-16.3-60.7C816.2,81.7,789,89.1,776.8,110.4z"/></g></g><g></g><g></g><g></g><g></g><g></g><g></g><g></g><g></g><g></g><g></g><g></g><g></g><g></g><g></g><g></g></g>
</svg>