<?xml version="1.0" encoding="UTF-8" standalone="no"?>
<!-- Created with Inkscape (http://www.inkscape.org/) -->

<svg
   width="210mm"
   height="297mm"
   viewBox="0 0 210 297"
   version="1.1"
   id="svg5"
   inkscape:version="1.1 (1:1.1+202105261517+ce6663b3b7)"
   sodipodi:docname="drawing.svg"
   xmlns:inkscape="http://www.inkscape.org/namespaces/inkscape"
   xmlns:sodipodi="http://sodipodi.sourceforge.net/DTD/sodipodi-0.dtd"
   xmlns="http://www.w3.org/2000/svg"
   xmlns:svg="http://www.w3.org/2000/svg">
  <sodipodi:namedview
     id="namedview7"
     pagecolor="#505050"
     bordercolor="#eeeeee"
     borderopacity="1"
     inkscape:pageshadow="0"
     inkscape:pageopacity="0"
     inkscape:pagecheckerboard="0"
     inkscape:document-units="mm"
     showgrid="false"
     inkscape:zoom="1.1759259"
     inkscape:cx="504.28346"
     inkscape:cy="366.09449"
     inkscape:window-width="1920"
     inkscape:window-height="1028"
     inkscape:window-x="0"
     inkscape:window-y="26"
     inkscape:window-maximized="1"
     inkscape:current-layer="layer1" />
  <defs
     id="defs2" />
  <g
     inkscape:label="Layer 1"
     inkscape:groupmode="layer"
     id="layer1">
    <path
       style="fill:none;stroke:#000000;stroke-width:3;stroke-linecap:butt;stroke-linejoin:miter;stroke-opacity:1;stroke-miterlimit:4;stroke-dasharray:none"
       d="m 56.19611,168.91129 c -0.210235,0.0166 -1.485109,0.37925 -1.833959,0.19995 -0.972783,-0.49997 -0.790012,-1.50331 -1.350412,-2.25041 -0.883084,-1.17728 -2.695017,-4.63752 -2.695017,-6.05422 0,-0.23717 0.18601,-0.44106 0.225002,-0.675 0.109458,-0.65676 -0.109461,-1.36825 0,-2.025 0.14987,-0.89923 0.846627,-1.35384 1.349999,-2.025 0.36635,-0.48847 0.70258,-1.43274 0.899999,-2.025 0.600339,-1.80102 -0.0499,-3.4079 -0.227044,-5.18114 -0.03783,-0.37865 0.08374,-0.7704 0,-1.1416 -0.08038,-0.35629 -0.363959,-0.63871 -0.479761,-0.98511 -0.118896,-0.35565 0.06165,-0.7551 0,-1.125 -0.311111,-1.86667 -0.290981,-3.80356 -0.901179,-5.63416 -0.211916,-0.63574 -0.529416,-1.23989 -0.897173,-1.79152 -0.145889,-0.21884 -0.592807,-0.42843 -0.675,-0.675 -0.203639,-0.61092 -0.371067,-1.42028 -0.677169,-2.0315 -0.09591,-0.1915 -0.35819,-0.26296 -0.45434,-0.45434 -0.237641,-0.47301 -0.09405,-2.1348 0,-2.69603 0.11725,-0.69969 1.596554,-3.63918 2.220296,-4.00914 0.493085,-0.29247 1.08929,-0.38231 1.581041,-0.67702 0.182772,-0.10953 0.256207,-0.36795 0.452007,-0.45201 0.952902,-0.40908 1.650997,-0.24336 2.46812,-0.89656 0.801394,-0.64062 1.524238,-1.81939 2.025547,-2.70055 0.944295,-1.6598 1.033793,-3.59799 1.447051,-5.41525 0.431136,-1.89586 1.014762,-3.74833 1.618782,-5.56398 0.416102,-1.25078 0.0305,-0.91104 0.452017,-2.03508 0.41008,-1.09355 1.00035,-2.37239 1.581319,-3.38975 0.475636,-0.83292 1.528371,-2.45124 2.477114,-2.92712 0.455012,-0.22822 1.165728,-0.24608 1.566555,-0.44718 1.497436,-0.7513 2.883231,-1.87691 4.551731,-2.50305 0.845968,-0.31747 2.057662,-0.16089 2.925,-0.45 1.080315,-0.3601 2.056183,-1.777009 3.363889,-1.35 0.604186,0.197286 0.779145,0.82748 1.299355,1.08759 0.823982,0.41199 1.594369,0.0969 2.469396,0.22219 0.728689,0.10435 3.262929,0.717 4.347964,0.80213 1.583349,0.12422 3.240868,-0.19687 4.81583,0 2.492674,0.31158 5.268481,1.45021 7.595068,2.10565 0.82282,0.2318 1.592794,0.0995 2.248887,0.66039 0.270985,0.23167 -0.09624,1.95562 0,2.15243 0.267305,0.54661 0.594095,1.18216 0.890235,1.77081 0.0666,0.13233 -0.0666,0.31207 0,0.4444 0.33457,0.66497 0.51032,1.60053 0.9,2.25 0.74267,1.23778 1.84112,2.36956 2.79366,3.45222 0.60616,0.68896 0.98771,1.58107 1.68643,2.17595 1.01574,0.8648 2.44086,1.52374 3.18922,2.72375 0.39173,0.62815 -0.40713,4.31587 -0.45412,4.9306 -0.13084,1.71169 -0.16748,3.66686 0,5.37069 0.12281,1.24937 0.70253,1.48781 1.14766,2.52764 0.42367,0.98971 0.34201,2.16236 0.68044,3.17514 0.10855,0.32487 0.40764,0.58052 0.45956,0.91909 0.10497,0.68459 -0.0525,1.38717 0,2.07777 0.11798,1.55347 0.90856,3.31276 1.26238,4.81651 0.24744,1.05165 0.51793,2.05422 0.94493,3.05122 0.22536,0.52619 0.58257,1.00138 0.67923,1.58136 0.20285,1.21706 0,2.60198 0,3.83122 0,0.6015 0.14596,1.22098 0,1.8045 -0.39323,1.57211 -2.05349,2.8104 -2.82112,4.18971 -0.71329,1.28165 -1.0493,2.87375 -1.56525,4.24495 -0.31891,0.84753 -0.901,1.50474 -1.35926,2.2685 -0.30834,0.5139 -0.68198,1.81813 -0.9,2.46957"
       id="path42" />
    <path
       style="fill:none;stroke:#000000;stroke-width:3;stroke-linecap:butt;stroke-linejoin:miter;stroke-opacity:1;stroke-miterlimit:4;stroke-dasharray:none"
       d="m 109.73534,122.86864 c -1.49332,0.0666 -2.42888,-1.12414 -3.60617,-1.77739 -0.84585,-0.46933 -1.67237,-0.53193 -2.55737,-0.92747 -0.36298,-0.16222 -0.57567,-0.59991 -0.95726,-0.71151 -0.62676,-0.18331 -2.41922,-0.133 -2.951241,0 -0.791078,0.19777 -1.309349,0.58391 -2.034188,0.9031 -1.081051,0.47605 -2.150502,0.57192 -3.124607,0.92418 -0.770332,0.27857 -1.142762,0.68118 -1.783028,1.10802 -0.596992,0.398 -0.531738,0.12164 -1.356399,0.45214 -0.223798,0.0897 -0.551228,1.10645 -0.67714,1.26384 -0.760296,0.95037 -1.857891,1.79716 -3.068416,1.79716"
       id="path44" />
    <path
       style="fill:none;stroke:#000000;stroke-width:3;stroke-linecap:butt;stroke-linejoin:miter;stroke-opacity:1;stroke-miterlimit:4;stroke-dasharray:none"
       d="m 52.867393,147.98644 c 1.36916,-0.61713 2.536065,-0.56434 4.061219,-0.79847 1.345112,-0.20649 2.692492,-0.94291 4.10206,-0.70657 1.090589,0.18285 0.891842,0.29755 2.035958,0.68048 0.844857,0.28276 3.372623,0.12693 4.264345,0 0.436682,-0.0622 0.6804,-0.52075 1.095706,-0.6583 0.659244,-0.21835 2.86339,-0.1728 3.558857,0 1.663195,0.41323 2.750365,2.25385 3.970804,3.47428"
       id="path46" />
    <path
       style="fill:none;stroke:#000000;stroke-width:3;stroke-linecap:butt;stroke-linejoin:miter;stroke-opacity:1;stroke-miterlimit:4;stroke-dasharray:none"
       d="m 99.9209,105.68177 c 1.6866,-0.21992 3.1914,-0.60461 4.90796,-0.60461 2.31558,0 6.43612,-0.34157 8.58575,0 1.22891,0.19526 2.87535,0.91018 4.0184,1.41238 1.03358,0.45411 1.65781,1.23325 2.7851,1.60958 0.66412,0.22171 1.7565,0 2.46914,0 0.68322,0 1.39081,0.18088 2.04965,0 2.12263,-0.58274 4.03162,-2.01706 5.97778,-2.99671 2.15781,-1.08618 4.38572,-2.1034 6.31183,-3.6051 1.20469,-0.93923 2.39894,-1.964842 3.69559,-2.775607 0.43128,-0.269666 0.96768,-0.364631 1.36483,-0.682403 0.89791,-0.718426 1.52963,-1.287833 2.67931,-1.564947 1.27263,-0.30675 6.48618,0 7.88626,0 2.95759,0 6.00169,-0.189034 8.89991,0.224999 0.29699,0.04243 0.60896,-0.07276 0.90001,0 1.93916,0.484791 3.28542,2.215986 4.7397,3.385508 1.48686,1.19572 3.28441,2.43852 5.11033,3.04714 0.19387,0.0646 1.76164,0.31403 2.03714,0.45213 0.33873,0.16978 0.56982,0.5132 0.90841,0.68325 0.57263,0.2876 1.19195,0.47275 1.8,0.675 0.68528,0.22795 1.85746,0.27506 2.52158,0.45428 2.36862,0.63922 4.00972,1.35306 6.01941,2.55887 1.59032,0.95419 2.94537,4.33245 3.1372,6.0622 0.0415,0.37397 -0.0745,0.75998 0,1.12879 0.0824,0.40791 0.37996,0.75178 0.46228,1.15971 0.3783,1.87467 -0.27175,3.94761 -0.91503,5.66299 -0.11777,0.31406 -0.38422,0.57111 -0.45,0.90001 -0.21308,1.0654 -0.0439,2.28854 -0.225,3.37499 -0.12736,0.76417 -0.21983,2.38285 0,3.14163 0.0952,0.32876 0.38439,0.58444 0.45923,0.91844 0.0824,0.36784 -0.0741,0.76128 0,1.13089 0.0802,0.39998 0.303,0.75753 0.45451,1.13629 0.15144,0.52863 0.36356,1.04353 0.45434,1.58588 0.28975,1.73108 0.0414,3.53085 0.23453,5.26796 0.26329,2.36803 0.9323,6.61853 0.46516,8.94561 -0.24946,1.2427 -1.99341,5.21726 -2.75122,6.16167 -0.61421,0.76544 -1.20292,1.54377 -1.57566,2.47563 -0.20527,0.51318 -0.0924,1.26964 -0.22501,1.8 -0.0257,0.1029 -0.19927,0.1221 -0.22499,0.225 -0.23621,0.94484 -0.0299,1.91851 -0.225,2.87437 -0.12014,0.58868 -0.5242,1.1987 -0.675,1.8 -0.14115,0.56277 0.14072,1.23139 0,1.79427 -0.23509,0.94035 -0.84904,2.04798 0,2.89702"
       id="path173" />
    <path
       style="fill:none;stroke:#000000;stroke-width:3;stroke-linecap:butt;stroke-linejoin:miter;stroke-opacity:1;stroke-miterlimit:4;stroke-dasharray:none"
       d="m 113.57236,145.16417 c 2.1042,-3.15479 4.50428,-3.39253 8.00016,-3.39253 0.40589,0 4.78198,0.29117 5.36431,0 0.48321,-0.2416 1.3118,-0.3306 1.91238,-0.21048 1.54707,0.30941 3.01623,1.30334 4.5,1.8 0.54119,0.18115 0.98498,-0.0658 1.56656,0.225 0.75221,0.3761 1.44709,0.82402 2.25,1.125 1.56283,0.58583 4.35872,0.83992 6.10217,1.13049 0.19804,0.033 2.18418,0 1.75,0"
       id="path175" />
    <path
       style="fill:none;stroke:#000000;stroke-width:3;stroke-linecap:butt;stroke-linejoin:miter;stroke-opacity:1;stroke-miterlimit:4;stroke-dasharray:none"
       d="m 182.2653,107.06612 c -1.80412,1.37205 -4.06164,2.03432 -5.78128,3.51387 -0.62919,0.54134 -1.16506,1.33291 -1.83651,1.8365 -0.60925,0.45694 -0.36996,-0.067 -0.9,0.675 -0.99151,1.38798 -1.074,3.3223 -1.57538,4.95077 -0.28046,0.9109 -0.95537,2.33898 -1.13042,3.38932 -0.26028,1.56163 0.41228,-0.33684 -0.22501,1.575 -0.10539,0.31619 -0.3668,0.57086 -0.44715,0.89433 -0.15574,0.62692 0.20342,1.41473 0,2.025 -0.42175,1.26525 -0.52165,2.80183 -1.35,4.04436 -0.4608,0.69119 -1.2311,1.00609 -1.78112,1.55611"
       id="path177" />
    <path
       style="fill:none;stroke:#000000;stroke-width:3;stroke-linecap:butt;stroke-linejoin:miter;stroke-opacity:1;stroke-miterlimit:4;stroke-dasharray:none"
       d="m 71.516504,101.90485 c -0.292172,-0.51479 -0.638355,-1.00247 -0.876517,-1.54437 -0.332809,-0.757263 0.0297,-4.613176 0.225001,-5.394387 0.215152,-0.860608 0.717392,-1.565145 1.125001,-2.244492 0.375634,-0.62606 0.524118,-1.511083 1.124998,-2.024999 0.334689,-0.28625 0.766685,-0.435116 1.133295,-0.679149 0.973359,-0.647914 1.947809,-2.869903 2.513274,-3.886221 0.961565,-1.728234 0.0069,-0.04683 0.699609,-2.115156 0.354639,-1.058934 0.974367,-2.017307 1.320022,-3.079207 0.494435,-1.518978 0.628327,-3.20933 0.914405,-4.774068 0.549923,-3.007878 0.32222,-6.13143 0.915093,-9.088392 0.111234,-0.554784 0.472189,-1.520068 0.677225,-2.031659 0.212177,-0.529415 0.980834,-0.989597 1.12721,-1.577218 0.09117,-0.36599 -0.07412,-0.761704 0,-1.131525 0.247996,-1.237303 3.804142,-7.626273 4.707284,-8.752017 1.739955,-2.168808 3.918857,-2.619743 6.532417,-3.142454 0.365185,-0.07304 0.750006,0.06184 1.117253,0 0.986388,-0.166089 2.203601,-0.938315 3.127356,-1.348867 1.44244,-0.641074 2.51211,-1.794817 3.82677,-2.627365 0.79582,-0.760529 1.8953,-0.975455 2.80048,-1.53598 1.09134,-0.675791 2.02898,-1.353617 3.17027,-1.810134 1.23482,-0.493927 4.83127,-0.373129 6.10754,-0.227155 0.73045,-0.0052 1.38598,0.376933 2.09623,0.465889 1.47758,0.18506 3.03605,-0.210514 4.50964,0 0.83407,0.119152 1.6518,0.572434 2.475,0.674999 1.88799,0.235233 3.73842,0.438904 5.63692,0.676214 1.3007,0.162589 2.15824,-0.225467 3.41102,-0.453384 0.29705,-0.05404 0.60629,0.03829 0.90578,0 1.07132,-0.136959 2.12628,-0.534131 3.18196,-0.684943 2.60227,-0.371753 5.44998,0.250685 7.67749,1.585574 3.62492,2.172314 6.91019,4.861076 10.22855,7.515473 0.8754,0.700244 1.42769,1.772166 2.25125,2.476469 1.07757,0.92153 3.06698,0.813212 3.86099,2.13656 1.2253,2.042158 0.72104,2.408217 1.35353,4.541824 0.29056,0.980155 0.73881,1.92477 0.91103,2.962498 0.037,0.22316 0,0.452424 0,0.678637 0,0.684549 -0.12281,1.380205 0,2.053649 0.0387,0.212402 0.405,0.248708 0.45801,0.458007 0.21274,0.840007 0,2.46241 0,3.375398 0,1.086175 -0.32286,2.084533 -0.225,3.176635 0.0976,1.088927 0.30089,2.64305 0.68829,3.677719 0.0948,0.253248 0.36449,0.418462 0.45,0.675002 0.21537,0.646112 0.0784,1.365782 0.22613,2.030637 0.21793,0.980991 0.58689,1.978568 0.9042,2.927086 0.28017,0.837525 0,2.264513 0,3.144424 0,0.921912 0.31855,5.005388 0,5.801757 -0.21587,0.539663 -0.67664,1.016593 -0.9,1.575001 -0.52305,1.307613 -0.75436,2.308178 -1.76118,3.31493"
       id="path179" />
    <path
       style="fill:none;stroke:#000000;stroke-width:3;stroke-linecap:butt;stroke-linejoin:miter;stroke-miterlimit:4;stroke-dasharray:none;stroke-opacity:1"
       d="m 83.343933,59.355141 c 1.167379,-0.163868 2.212419,0.297574 3.285048,0.823446 0.573148,0.280993 1.487268,0.946116 2.027939,1.351619 0.22661,0.169958 0.606377,0.774314 0.900001,0.900001 0.756904,0.323996 1.768176,0.430327 2.479585,0.901147 0.417491,0.276299 0.717008,0.794732 1.105665,1.105657 1.05102,0.840814 2.742864,1.538573 4.050001,1.8 1.393414,0.278683 3.648668,0.06262 4.930228,-0.450001 1.21436,-0.485743 1.902,-1.037031 3.15,-1.349999 0.56323,-0.141245 1.22417,0.114491 1.79441,0 0.88775,-0.178237 1.97952,-0.415512 2.91408,-0.22719 0.51972,0.104728 1.04924,0.675 1.53361,0.675"
       id="path181" />
    <path
       style="fill:none;stroke:#000000;stroke-width:3;stroke-linecap:butt;stroke-linejoin:miter;stroke-opacity:1;stroke-miterlimit:4;stroke-dasharray:none"
       d="m 163.0534,76.782712 c -1.78846,0.07335 -3.07136,1.150149 -4.58522,1.907074 -1.07866,0.539335 -2.57171,2.189779 -3.5921,2.917098 -0.41288,0.29429 -0.95507,0.375475 -1.36092,0.679381 -0.79113,0.592407 -1.28283,1.157512 -2.23749,1.566651 -0.59919,0.256796 -1.0302,0.0434 -1.575,0.224999 -0.063,0.02101 -0.33836,0.373573 -0.41352,0.413525 -1.04013,0.552842 -2.43492,-0.769205 -3.36415,-1.180645 -0.2922,-0.129376 -0.89143,0.08083 -1.17068,0 -0.82038,0.461468 -0.71238,-0.494646 -1.10981,-0.659799 -0.85174,-0.353941 -5.17935,0.764585 -5.74365,1.328936"
       id="path183" />
    <path
       style="fill:none;stroke:#000000;stroke-width:3;stroke-linecap:butt;stroke-linejoin:miter;stroke-opacity:1;stroke-miterlimit:4;stroke-dasharray:none"
       d="m 56.19611,168.91129 c 2.541786,-0.17904 4.919271,-1.50168 7.579072,-1.05838 0.920813,0.15347 1.782945,0.57682 2.730844,0.6827 1.845542,0.20616 3.434667,0.45766 5.238136,0.90996 0.810106,0.20317 1.958752,0 2.784409,0 1.60465,0 3.379136,0.19975 4.977137,0 0.842354,-0.10529 1.647082,-0.55673 2.475,-0.675 0.68916,-0.0984 1.573287,0.19236 2.24717,0 1.450766,-0.41413 2.997483,-0.73249 4.516549,-0.90162 1.154816,-0.12857 2.236295,-0.034 3.387042,-0.225 0.656182,-0.1089 1.375434,0.13037 2.027309,0 0.465129,-0.093 0.88982,-0.33496 1.349999,-0.45 1.386118,-0.34653 3.329564,0 4.785113,0 1.1905,0 2.89749,0.29021 4.05835,0 0.72692,-0.18173 0.17871,-0.41399 1.11659,-0.225 0.1644,0.0331 0.28458,0.19743 0.45,0.225 0.44388,0.074 0.92309,-0.1423 1.35,0 0.38763,0.12921 0.64281,0.54362 1.09642,0.65702 0.34388,0.086 1.00556,-0.16471 1.32435,0 0.31875,0.1647 0.57016,0.89237 1.28872,1.06807 0.79929,0.19544 0.45441,-0.13219 1.11534,0 0.63336,0.12667 1.19993,0.47496 1.7999,0.67494 0.65293,0.21764 1.56478,-0.0979 2.24996,0 1.05544,0.15078 2.14173,0.30207 3.19025,0.45208 1.4402,0.20604 2.87185,0.72505 4.33604,0.91224 0.89219,0.11407 9.76215,0.21329 10.61528,0 0.97101,-0.24275 0.32856,-0.44944 0.9743,-0.5826 0.55534,-0.11452 1.23413,0.0693 1.78835,0 0.80718,-0.1009 1.67751,-0.31709 2.475,-0.45 1.63211,-0.27202 -0.52819,-0.27128 1.8,-0.9 0.6378,-0.17224 1.59965,0.11334 2.27913,0 0.88646,-0.14787 1.93919,-0.64806 2.71997,-0.91055 1.08524,-0.36484 2.81534,0.1401 3.8748,0.23889 1.34089,0.12502 2.66621,0.13317 4.01225,0.23502 1.42062,0.1075 2.76652,0.56878 4.13206,0.91121 0.56353,0.14131 1.42547,0 2.0111,0 1.28234,0 1.44321,0.26781 2.6733,0.44472 1.40548,0.20214 8.8108,0.15839 9.60435,0 0.52671,-0.10512 1.62767,-0.74467 2.24169,-0.89722 0.49084,-0.12195 0.57623,0.18292 1.125,0 3.29949,-1.09983 -1.7103,0.0901 1.35,-0.675 1.41803,-0.35451 2.96681,-0.0145 4.3391,-0.45776 0.38283,-0.12366 0.0631,-0.23838 0.36096,-0.36096 0.19827,-0.0816 0.43981,0.0678 0.64321,0 1.14573,-0.38191 1.22025,-0.54151 1.29967,0.84483"
       id="path185" />
  </g>
</svg>
