<?xml version="1.0" encoding="UTF-8" standalone="no"?>
<svg
   version="1.1"
   x="0px"
   y="0px"
   viewBox="0 0 1063 1000"
   enable-background="new 0 0 1000 1000"
   xml:space="preserve"
   id="svg12"
   sodipodi:docname="spot_height.svg"
   inkscape:version="1.1 (1:1.1+202105261517+ce6663b3b7)"
   width="1063"
   height="1000"
   xmlns:inkscape="http://www.inkscape.org/namespaces/inkscape"
   xmlns:sodipodi="http://sodipodi.sourceforge.net/DTD/sodipodi-0.dtd"
   xmlns="http://www.w3.org/2000/svg"
   xmlns:svg="http://www.w3.org/2000/svg"><defs
   id="defs16" /><sodipodi:namedview
   id="namedview14"
   pagecolor="#505050"
   bordercolor="#eeeeee"
   borderopacity="1"
   inkscape:pageshadow="0"
   inkscape:pageopacity="0"
   inkscape:pagecheckerboard="0"
   showgrid="false"
   inkscape:zoom="0.33"
   inkscape:cx="3.030303"
   inkscape:cy="440.90909"
   inkscape:window-width="1920"
   inkscape:window-height="1028"
   inkscape:window-x="0"
   inkscape:window-y="26"
   inkscape:window-maximized="1"
   inkscape:current-layer="svg12"
   inkscape:snap-intersection-paths="false"
   width="1001px" />

<path
   style="fill:none;fill-rule:evenodd;stroke:#000000;stroke-width:35.537;stroke-linecap:round;stroke-linejoin:miter;stroke-miterlimit:4;stroke-dasharray:none;stroke-opacity:1"
   d="M 963.15891,53.614117 961.21154,971.9614"
   id="path1527"
   inkscape:connector-type="polyline"
   inkscape:connector-curvature="0" /><path
   style="fill:none;fill-rule:evenodd;stroke:#000000;stroke-width:29.237;stroke-linecap:round;stroke-linejoin:round;stroke-miterlimit:16.3;stroke-dasharray:none;stroke-opacity:1"
   d="M 961.65007,50.679661 881.15562,158.1358"
   id="path1527-7"
   inkscape:connector-type="polyline"
   inkscape:connector-curvature="0" /><path
   style="fill:none;fill-rule:evenodd;stroke:#000000;stroke-width:29.237;stroke-linecap:round;stroke-linejoin:miter;stroke-miterlimit:4;stroke-dasharray:none;stroke-opacity:1"
   d="M 964.95725,51.208361 1044.3656,159.62427"
   id="path1527-7-5"
   inkscape:connector-type="polyline"
   inkscape:connector-curvature="0" /><path
   style="fill:none;fill-rule:evenodd;stroke:#000000;stroke-width:29.237;stroke-linecap:round;stroke-linejoin:round;stroke-miterlimit:16.3;stroke-dasharray:none;stroke-opacity:1"
   d="M 962.21568,975.9117 1042.7101,868.45556"
   id="path1527-7-56"
   inkscape:connector-type="polyline"
   inkscape:connector-curvature="0" /><path
   style="fill:none;fill-rule:evenodd;stroke:#000000;stroke-width:29.237;stroke-linecap:round;stroke-linejoin:miter;stroke-miterlimit:4;stroke-dasharray:none;stroke-opacity:1"
   d="M 959.9863,976.49788 880.57789,868.08197"
   id="path1527-7-5-2"
   inkscape:connector-type="polyline"
   inkscape:connector-curvature="0" /><path
   style="fill:none;stroke:#000000;stroke-width:34.52;stroke-linecap:butt;stroke-linejoin:miter;stroke-miterlimit:4;stroke-dasharray:none;stroke-opacity:1"
   d="m 111.26454,896.03134 c -1.11638,0.10906 -7.88618,2.49175 -9.73863,1.31371 -5.165638,-3.28491 -4.195094,-9.87706 -7.170911,-14.78566 -4.689322,-7.73497 -14.310988,-30.46946 -14.310988,-39.77747 0,-1.55825 0.987744,-2.89785 1.194798,-4.43489 0.581241,-4.31505 -0.581256,-8.98968 0,-13.30466 0.795835,-5.90813 4.49573,-8.89501 7.168719,-13.30467 1.94538,-3.20935 3.730817,-9.4134 4.779145,-13.30467 3.187899,-11.83307 -0.264978,-22.3906 -1.205642,-34.04115 -0.200883,-2.48781 0.444673,-5.06169 0,-7.50055 -0.426831,-2.3409 -1.932683,-4.19646 -2.54761,-6.47238 -0.631358,-2.33669 -14.534828,-5.66205 -14.862199,-8.09237 -1.652052,-12.2644 13.317041,-24.28928 10.076788,-36.3167 0.519535,-5.74023 -7.388625,-13.14855 -8.348499,-16.20554 -1.081357,-4.01387 -1.970428,-9.33153 -3.59588,-13.34738 -0.509298,-1.25819 -1.902049,-1.7277 -2.412621,-2.9851 -1.261913,-3.10778 -0.499421,-14.02608 0,-17.71347 0.622617,-4.59711 8.477967,-23.91017 11.79014,-26.34088 2.618364,-1.92159 5.784311,-2.51185 8.395591,-4.44816 0.970549,-0.71963 1.360501,-2.41751 2.400232,-2.9698 5.060068,-2.68774 8.767067,-1.59892 13.106127,-5.89058 4.25554,-4.20901 8.09396,-11.95377 10.75599,-17.74317 5.01436,-10.90523 5.48961,-23.63954 7.68408,-35.57931 2.28941,-12.45619 5.38856,-24.6273 8.596,-36.55649 2.20957,-8.21788 0.16196,-5.98572 2.40029,-13.3709 2.17759,-7.18485 5.31202,-15.58709 8.39707,-22.27135 2.5257,-5.47246 8.1159,-16.10515 13.15388,-19.23178 2.41619,-1.49946 6.19021,-1.6168 8.31867,-2.93807 7.95163,-4.93619 15.31044,-12.33168 24.17045,-16.44555 4.49223,-2.08584 10.92652,-1.05708 15.53223,-2.95659 5.73666,-2.36593 10.91868,-11.67532 17.86281,-8.86978 3.20833,1.29621 4.13739,5.43671 6.89979,7.14569 4.37548,2.70686 8.46637,0.63665 13.11291,1.45983 3.86946,0.6856 17.32669,4.71084 23.08841,5.27016 8.40784,0.81615 17.20954,-1.29347 25.57285,0 13.23652,2.04715 27.97651,9.52818 40.33108,13.83456 4.36931,1.52297 8.458,0.65373 11.94196,4.33889 1.43898,1.52212 -0.51105,12.84883 0,14.14191 1.41943,3.59134 3.15474,7.76704 4.7273,11.63459 0.35365,0.86943 -0.35366,2.05036 0,2.9198 1.77662,4.36899 2.70988,10.51581 4.77915,14.78296 3.9437,8.13247 9.77665,15.5685 14.83479,22.6818 3.21881,4.52661 5.24491,10.38795 8.95523,14.29644 5.39375,5.68191 12.96137,10.01128 16.93529,17.89559 2.08015,4.12708 -2.16193,28.35616 -2.41146,32.39506 -0.69478,11.24616 -0.88934,24.09203 0,35.28654 0.65214,8.20862 3.73055,9.77522 6.09427,16.60711 2.24976,6.5026 1.81613,14.20715 3.61325,20.86133 0.57642,2.13446 2.16463,3.81413 2.44034,6.03861 0.55741,4.4979 -0.27879,9.11399 0,13.65137 0.62649,10.20662 4.8246,21.76552 6.70345,31.64547 1.31394,6.90955 2.75029,13.49664 5.01773,20.04714 1.1967,3.45718 3.09354,6.57927 3.60682,10.38986 1.07717,7.99633 0,17.09554 0,25.1719 0,3.95198 0.77508,8.02209 0,11.85594 -2.08811,10.32909 -10.90437,18.46491 -14.98061,27.52726 -3.78769,8.4207 -5.57196,18.88113 -8.31174,27.89019 -1.69346,5.56845 -4.78446,9.88645 -7.2179,14.90451 -1.63733,3.37643 -3.62142,11.94549 -4.77914,16.22559"
   id="path42"
   sodipodi:nodetypes="csssssssssssccssssssssssssssssssssssssccssssssssscssssssssc" /><path
   style="fill:none;stroke:#000000;stroke-width:34.52;stroke-linecap:butt;stroke-linejoin:miter;stroke-miterlimit:4;stroke-dasharray:none;stroke-opacity:1"
   d="m 395.56674,593.52165 c -7.92977,0.43758 -12.89775,-7.38583 -19.14936,-11.67782 -4.4916,-3.08359 -8.88056,-3.49489 -13.58006,-6.09367 -1.92748,-1.06581 -3.0569,-3.94153 -5.08321,-4.67476 -3.3282,-1.20439 -12.84646,-0.87384 -15.67158,0 -4.20075,1.29939 -6.95286,3.83641 -10.80187,5.93355 -5.74056,3.12775 -11.41953,3.75763 -16.59219,6.07205 -4.09059,1.83027 -6.06825,4.4755 -9.46817,7.27992 -3.17013,2.61494 -2.82362,0.7992 -7.20271,2.97066 -1.1884,0.58934 -2.92711,7.2696 -3.59572,8.30368 -4.0373,6.24413 -9.86571,11.80772 -16.2938,11.80772"
   id="path44" /><path
   style="fill:none;stroke:#000000;stroke-width:34.52;stroke-linecap:butt;stroke-linejoin:miter;stroke-miterlimit:4;stroke-dasharray:none;stroke-opacity:1"
   d="m 93.588498,758.55077 c 7.270472,-4.05467 13.466922,-3.70783 21.565752,-5.24612 7.14276,-1.35668 14.29758,-6.19511 21.78262,-4.64231 5.7912,1.20137 4.73582,1.95497 10.81127,4.4709 4.48633,1.85779 17.90919,0.83395 22.64438,0 2.31885,-0.40867 3.61304,-3.42144 5.81838,-4.32517 3.5007,-1.4346 15.20508,-1.13533 18.89812,0 8.83185,2.71501 14.6049,14.80826 21.08563,22.82674"
   id="path46" /><path
   style="fill:none;stroke:#000000;stroke-width:34.52;stroke-linecap:butt;stroke-linejoin:miter;stroke-miterlimit:4;stroke-dasharray:none;stroke-opacity:1"
   d="m 343.45044,480.60038 c 8.95612,-1.44492 16.94686,-3.97241 26.06208,-3.97241 12.29611,0 34.17686,-2.24419 45.59176,0 6.52571,1.28289 15.26858,5.98007 21.33837,9.27962 5.48848,2.9836 8.80325,8.10271 14.78934,10.57528 3.52659,1.45668 9.32731,0 13.11155,0 3.62801,0 7.38543,1.18841 10.88398,0 11.27152,-3.82873 21.40857,-13.2525 31.743,-19.68901 11.45833,-7.13642 23.2889,-13.81977 33.51687,-23.68625 6.3971,-6.17093 12.73877,-12.90941 19.62419,-18.2363 2.29017,-1.77177 5.13855,-2.39571 7.24748,-4.48353 4.76805,-4.72021 8.12259,-8.46133 14.22758,-10.28203 6.75788,-2.01541 34.44269,0 41.87735,0 15.70529,0 31.86997,-1.24199 47.26,1.47829 1.57707,0.27878 3.23368,-0.47804 4.7792,0 10.29727,3.18518 17.44613,14.55949 25.1686,22.24349 7.89547,7.85612 17.44076,16.02158 27.1367,20.02033 1.02948,0.42444 9.3546,2.06325 10.81755,2.97059 1.79871,1.11549 3.02584,3.37183 4.82381,4.48909 3.04076,1.8896 6.32945,3.10607 9.5583,4.43489 3.63895,1.49768 9.86342,1.8072 13.39001,2.98472 12.57776,4.1998 21.29228,8.88988 31.96406,16.8123 8.44487,6.26922 15.64041,28.46509 16.65906,39.8299 0.22037,2.45706 -0.39561,4.99323 0,7.41638 0.43755,2.68006 2.01765,4.93935 2.45478,7.61954 2.00884,12.31696 -1.44304,25.93661 -4.85896,37.20701 -0.62538,2.06344 -2.04027,3.75231 -2.38958,5.91325 -1.13149,6.99989 -0.23311,15.03618 -1.19478,22.17438 -0.67631,5.02075 -1.16734,15.65581 0,20.64115 0.50552,2.16002 2.04117,3.83989 2.43858,6.03434 0.43756,2.41679 -0.39348,5.00177 0,7.43018 0.42588,2.62795 1.60898,4.97713 2.41353,7.46566 0.80417,3.47321 1.93056,6.85621 2.41262,10.41956 1.53862,11.37355 0.21984,23.19841 1.24539,34.61158 1.39812,15.55844 4.95067,43.4851 2.47008,58.7745 -1.32468,8.16479 -10.58534,34.27847 -14.60944,40.48344 -3.26155,5.0291 -6.3877,10.14289 -8.36701,16.2654 -1.09002,3.3717 -0.49066,8.34179 -1.19484,11.82637 -0.13647,0.67607 -1.05816,0.80222 -1.19474,1.47829 -1.25431,6.2078 -0.15877,12.60501 -1.19478,18.88521 -0.63797,3.86775 -2.78359,7.8757 -3.58437,11.82637 -0.74953,3.69751 0.74725,8.09048 0,11.78872 -1.24836,6.17829 -4.50854,13.45565 0,19.03402"
   id="path173" /><path
   style="fill:none;stroke:#000000;stroke-width:34.52;stroke-linecap:butt;stroke-linejoin:miter;stroke-miterlimit:4;stroke-dasharray:none;stroke-opacity:1"
   d="m 415.94196,740.00787 c 11.17365,-20.72762 23.91847,-22.28962 42.48217,-22.28962 2.15535,0 25.39311,1.91305 28.48538,0 2.56593,-1.58736 6.96588,-2.17211 10.15506,-1.3829 8.2152,2.03289 16.01668,8.56322 23.89574,11.82637 2.87381,1.1902 5.23041,-0.43231 8.3187,1.4783 3.99436,2.47106 7.68429,5.41398 11.94787,7.39148 8.29889,3.84903 23.14553,5.51845 32.40354,7.42755 1.05162,0.21682 11.59836,0 9.29279,0"
   id="path175" /><path
   style="fill:none;stroke:#000000;stroke-width:34.52;stroke-linecap:butt;stroke-linejoin:miter;stroke-miterlimit:4;stroke-dasharray:none;stroke-opacity:1"
   d="m 780.71288,489.69584 c -9.58018,9.01465 -21.56799,13.3659 -30.69956,23.08685 -3.3411,3.55672 -6.18666,8.75749 -9.75217,12.06618 -3.23522,3.00219 -1.96455,-0.4402 -4.77915,4.43489 -5.26509,9.11932 -5.70312,21.8282 -8.36553,32.52758 -1.48929,5.9848 -5.07318,15.36758 -6.00272,22.26853 -1.38213,10.26023 2.18928,-2.21311 -1.19484,10.34808 -0.55964,2.07743 -1.94777,3.75066 -2.37444,5.87593 -0.82701,4.11899 1.08019,9.29506 0,13.30466 -2.23956,8.31296 -2.77005,18.4086 -7.16873,26.57228 -2.44692,4.54126 -6.53734,6.61022 -9.45804,10.22396"
   id="path177" /><path
   style="fill:none;stroke:#000000;stroke-width:34.52;stroke-linecap:butt;stroke-linejoin:miter;stroke-miterlimit:4;stroke-dasharray:none;stroke-opacity:1"
   d="m 192.61838,455.78524 c -1.55149,-3.38228 -3.38978,-6.58644 -4.65446,-10.14683 -1.76727,-4.97538 0.15772,-30.30952 1.1948,-35.44223 1.14249,-5.65438 3.80947,-10.28333 5.97394,-14.74678 1.99468,-4.11334 2.78315,-9.92813 5.97393,-13.30466 1.77725,-1.88072 4.07122,-2.8588 6.01798,-4.46215 5.1687,-4.25693 10.34319,-18.85585 13.3459,-25.53327 5.10607,-11.35485 0.0366,-0.30768 3.71504,-13.89701 1.88319,-6.95741 5.17405,-13.25412 7.00954,-20.23102 2.62553,-9.98 3.33652,-21.08596 4.85564,-31.36661 2.92018,-19.76238 1.71104,-40.28476 4.8593,-59.71261 0.59067,-3.64504 2.5074,-9.98716 3.59617,-13.34842 1.1267,-3.47836 5.2084,-6.50185 5.98568,-10.36264 0.48412,-2.40463 -0.39359,-5.00456 0,-7.43436 1.3169,-8.12933 20.20062,-50.10618 24.99646,-57.50255 9.23945,-14.24951 20.80978,-17.21225 34.68822,-20.64657 1.93919,-0.47989 3.98265,0.4063 5.93279,0 5.23789,-1.09124 11.70149,-6.16492 16.60678,-8.86233 7.6596,-4.21199 13.33973,-11.792319 20.32079,-17.262331 4.22594,-4.996832 10.06436,-6.40894 14.87101,-10.091704 5.7952,-4.440086 10.77422,-8.893543 16.83466,-11.892953 6.5571,-3.245202 25.65485,-2.451535 32.43205,-1.492455 3.87882,-0.03417 7.35979,2.476527 11.13133,3.060986 7.8462,1.215883 16.12193,-1.38312 23.94694,0 4.42905,0.782853 8.77133,3.76101 13.14266,4.434883 10.02554,1.545529 19.85163,2.883689 29.93298,4.442865 6.90694,1.068243 11.46062,-1.481365 18.11309,-2.978826 1.57738,-0.355054 3.2195,0.251573 4.80984,0 5.68889,-0.899849 11.2909,-3.509351 16.89674,-4.500217 13.81848,-2.442494 28.94029,1.647052 40.76874,10.417548 19.24893,14.27255 36.69426,31.938274 54.3153,49.378204 4.64852,4.60075 7.58127,11.6435 11.95451,16.27091 5.72208,6.05464 16.28618,5.34297 20.5025,14.03764 6.50655,13.4174 3.82884,15.82248 7.18747,29.84072 1.54292,6.43982 3.9232,12.64613 4.83772,19.46422 0.19648,1.46621 0,2.97252 0,4.45878 0,4.49763 -0.65214,9.06824 0,13.4929 0.2055,1.39553 2.15062,1.63406 2.43211,3.0092 1.12969,5.51902 0,16.17854 0,22.17706 0,7.13639 -1.71444,13.69581 -1.19479,20.87115 0.51828,7.15447 1.59778,17.36538 3.65494,24.16337 0.5034,1.66389 1.9355,2.74938 2.38957,4.4349 1.14365,4.24509 0.41632,8.97347 1.20079,13.3417 1.15724,6.44532 3.11648,12.9996 4.80145,19.23156 1.48775,5.50271 0,14.87832 0,20.65951 0,6.05715 1.69156,32.88643 0,38.11874 -1.1463,3.5457 -3.59307,6.67923 -4.77915,10.34808 -2.77748,8.59129 -4.00577,15.16521 -9.35216,21.77977"
   id="path179" /><path
   style="fill:none;stroke:#000000;stroke-width:34.52;stroke-linecap:butt;stroke-linejoin:miter;stroke-miterlimit:4;stroke-dasharray:none;stroke-opacity:1"
   d="m 255.42399,176.22489 c 6.19897,-1.07664 11.74831,1.95512 17.44415,5.41021 3.04351,1.84618 7.89764,6.21618 10.76869,8.88042 1.20334,1.11666 3.21996,5.0874 4.77916,5.91319 4.01928,2.12872 9.3893,2.82734 13.167,5.92072 2.21695,1.81534 3.80744,5.22155 5.87127,7.26439 5.58109,5.52432 14.56506,10.10874 21.50618,11.82637 7.39926,1.83101 19.37503,0.41143 26.18033,-2.9566 6.44845,-3.19143 10.09993,-6.8135 16.72702,-8.86977 2.99084,-0.92801 6.50055,0.75223 9.52861,0 4.7141,-1.17105 10.51158,-2.73 15.47425,-1.49268 2.7598,0.68808 5.57164,4.43489 8.14373,4.43489"
   id="path181" /><path
   style="fill:none;stroke:#000000;stroke-width:34.52;stroke-linecap:butt;stroke-linejoin:miter;stroke-miterlimit:4;stroke-dasharray:none;stroke-opacity:1"
   d="m 678.6945,290.72762 c -9.49702,0.48192 -16.30943,7.55672 -24.34828,12.52987 -5.72787,3.54354 -13.65621,14.3873 -19.07465,19.16593 -2.19246,1.93355 -5.07158,2.46695 -7.22671,4.46368 -4.20103,3.89223 -6.81204,7.60509 -11.88145,10.29322 -3.18179,1.6872 -5.47053,0.28514 -8.36351,1.47828 -0.33454,0.13804 -1.79674,2.45446 -2.19586,2.71695 -5.52326,3.63228 -12.92983,-5.05384 -17.86419,-7.75708 -1.55163,-0.85003 -4.73364,0.53107 -6.21651,0 -4.35635,3.03194 -3.78285,-3.24993 -5.89327,-4.33502 -4.52288,-2.32546 -27.50321,5.02348 -30.49974,8.73139"
   id="path183" /><path
   style="fill:none;stroke:#000000;stroke-width:34.52;stroke-linecap:butt;stroke-linejoin:miter;stroke-miterlimit:4;stroke-dasharray:none;stroke-opacity:1"
   d="m 111.26454,896.03134 c 13.4973,-1.17633 26.12214,-9.86635 40.24613,-6.95378 4.88967,1.00833 9.46773,3.78983 14.50123,4.48548 9.80014,1.35452 18.23866,3.00692 27.81538,5.97863 4.30179,1.33487 10.4013,0 14.78567,0 8.52096,0 17.94377,1.3124 26.42943,0 4.47304,-0.69178 8.74627,-3.65783 13.14266,-4.43489 3.65955,-0.64651 8.35441,1.26384 11.93284,0 7.70381,-2.72092 15.91714,-4.81261 23.98363,-5.92383 6.13226,-0.84473 11.8751,-0.22339 17.98575,-1.4783 3.48444,-0.71549 7.30379,0.85656 10.76535,0 2.46991,-0.61103 4.72509,-2.20075 7.16872,-2.95659 7.36052,-2.27677 17.68054,0 25.40974,0 6.32176,0 15.38616,1.90674 21.55052,0 3.86006,-1.194 0.94898,-2.72 5.92928,-1.4783 0.87299,0.21748 1.51116,1.29716 2.38957,1.4783 2.35708,0.4862 4.90176,-0.93494 7.16872,0 2.05838,0.84894 3.41343,3.5717 5.82218,4.31676 1.82606,0.56503 5.33969,-1.08218 7.03252,0 1.69261,1.08211 3.02764,5.86305 6.84331,7.01744 4.24437,1.28408 2.413,-0.86852 5.92264,0 3.36325,0.83224 6.37183,3.12058 9.55777,4.43449 3.46717,1.42994 8.30924,-0.64322 11.94766,0 5.60456,0.99066 11.37294,1.98466 16.94076,2.97026 7.6477,1.35372 15.25,4.76373 23.02509,5.9936 4.73768,0.74947 51.83864,1.40136 56.3689,0 5.15623,-1.59491 1.74471,-2.95291 5.1737,-3.8278 2.94895,-0.75242 6.55343,0.45532 9.49643,0 4.28626,-0.66293 8.90786,-2.08334 13.14266,-2.95659 8.66678,-1.78723 -2.80477,-1.78237 9.5583,-5.91319 3.38683,-1.13165 8.49441,0.74467 12.10256,0 4.70725,-0.97153 10.29742,-4.25788 14.44349,-5.9825 5.76281,-2.39707 14.94993,0.92049 20.57584,1.56956 7.12034,0.82141 14.15801,0.87495 21.30571,1.54413 7.54373,0.7063 14.69068,3.737 21.94192,5.98684 2.99244,0.92843 7.56949,0 10.67928,0 6.80944,0 7.66368,1.75956 14.19567,2.9219 7.46333,1.3281 46.78681,1.04065 51.00069,0 2.79692,-0.69066 8.6432,-4.89264 11.90375,-5.89492 2.60644,-0.80124 3.05987,1.20182 5.97393,0 17.52084,-7.22611 -9.08197,0.59197 7.16873,-4.43489 7.52997,-2.3292 15.75425,-0.0953 23.04134,-3.00758 2.03289,-0.81247 0.33507,-1.5662 1.91676,-2.37158 1.05284,-0.53613 2.33546,0.44546 3.41555,0 6.08402,-2.50923 6.47973,-3.55783 6.90146,5.55071"
   id="path185" /></svg>
