<?xml version="1.0" encoding="utf-8"?>
<!-- Svg Vector Icons : http://www.onlinewebfonts.com/icon -->
<!DOCTYPE svg PUBLIC "-//W3C//DTD SVG 1.1//EN" "http://www.w3.org/Graphics/SVG/1.1/DTD/svg11.dtd">
<svg version="1.1" xmlns="http://www.w3.org/2000/svg" xmlns:xlink="http://www.w3.org/1999/xlink" x="0px" y="0px" viewBox="0 0 1000 1000" enable-background="new 0 0 1000 1000" xml:space="preserve">
<metadata> Svg Vector Icons : http://www.onlinewebfonts.com/icon </metadata>
<g><path d="M463.7,10h68.8C769.7,23.6,973.8,226.4,990,463.3v61.3c-8.5,244-220.8,456.7-464.8,465.5h-56.8C230.7,977.1,26,773.6,10,536.4v-69.1C23.6,230,226.9,26,463.7,10 M392.9,84.8C184.4,134.6,37.6,356.6,77,568.1c30.5,226.5,265.6,397.7,490.8,355.3c226.7-30.7,397.9-265.6,355.2-491C891.7,190.6,627.6,16.5,392.9,84.8L392.9,84.8z M486.9,226.4c33.5-9.3,85.1-2.3,75,44.6c11.3,51.6-63.9,59.6-89.8,30.2C469.3,276.4,460.3,241.6,486.9,226.4L486.9,226.4z M505.1,421.3c18.1-19.8,55.4-15.8,56.5,15.4c-17.8,79.5-45.1,156.8-69.3,234.5c24.7-31.8,88.5-14.5,62.7,27.6c-40.7,26.6-80.9,76-131.2,73.7c-4.1-6.5-12.2-19.6-16.3-26c19.1-78.9,44.9-156.1,69.3-233.6c-22.9,14.5-63.5,31.4-69.6-10.8C425,462.8,471.7,446.3,505.1,421.3L505.1,421.3z"/></g>
</svg>