<?xml version="1.0" encoding="utf-8"?>
<!-- Svg Vector Icons : http://www.onlinewebfonts.com/icon -->
<!DOCTYPE svg PUBLIC "-//W3C//DTD SVG 1.1//EN" "http://www.w3.org/Graphics/SVG/1.1/DTD/svg11.dtd">
<svg version="1.1" xmlns="http://www.w3.org/2000/svg" xmlns:xlink="http://www.w3.org/1999/xlink" x="0px" y="0px" viewBox="0 0 1000 1000" enable-background="new 0 0 1000 1000" xml:space="preserve">
<metadata> Svg Vector Icons : http://www.onlinewebfonts.com/icon </metadata>
<g><path d="M983.8,793.7c0.9-3,1.9-6,1.9-9.2V215.6c0-3-1-5.7-1.7-8.4l5.8-5.9L972,187.9c-2.1-1.5-4.4-2.5-6.7-3.5c-0.1-0.1-0.2-0.1-0.3-0.1c-4.1-1.8-8.4-3-13-3l-904,0c-4.6,0-8.8,1.2-12.9,3c-0.1,0.1-0.2,0.1-0.4,0.2c-2.3,1-4.6,2-6.6,3.5l-17.8,13.3l5.8,5.9c-0.7,2.8-1.7,5.5-1.7,8.5v568.8c0,3.3,1,6.3,1.9,9.2l-6.1,6.2l19.1,13.1c5.5,3.8,12.1,5.8,18.8,5.8h904c6.7,0,13.1-2,18.7-5.7l19.4-13L983.8,793.7z M947.5,757L693.1,500.5l254.5-256.6V757z M917.1,220.1L500,640.8L82.8,220.1H917.1z M475.3,671.5c13.2,13.3,36.3,13.3,49.5,0l142-143.2l249.4,251.6H83.8l249.5-251.6L475.3,671.5z M52.5,243.8l254.5,256.7L52.5,757.1V243.8z"/></g>
</svg>