<?xml version="1.0" encoding="utf-8"?>
<!-- Svg Vector Icons : http://www.onlinewebfonts.com/icon -->
<!DOCTYPE svg PUBLIC "-//W3C//DTD SVG 1.1//EN" "http://www.w3.org/Graphics/SVG/1.1/DTD/svg11.dtd">
<svg version="1.1" xmlns="http://www.w3.org/2000/svg" xmlns:xlink="http://www.w3.org/1999/xlink" x="0px" y="0px" viewBox="0 0 1000 1000" enable-background="new 0 0 1000 1000" xml:space="preserve">
<metadata> Svg Vector Icons : http://www.onlinewebfonts.com/icon </metadata>
<g><g transform="translate(0.000000,511.000000) scale(0.100000,-0.100000)"><path d="M4364.3,4118c-350.1-146.7-1294.9-545.7-2100.8-884.2L796.4,2619.6l2106.7-5.9c1158-2,3051.5-2,4205.6,0l2100.8,5.9L7134.1,3494c-1142.3,481.2-2089.1,878.3-2104.7,884.1C5013.7,4382.1,4714.4,4266.6,4364.3,4118z"/><path d="M888.3,2433.8c-93.9-56.7-123.2-131.1-123.2-307.1c0-117.4,9.8-168.2,39.1-215.2c80.2-133-269.9-123.2,4209.5-123.2c3986.5,0,4056.9,0,4117.6,39.1c91.9,56.7,123.2,131.1,123.2,303.2c0,172.1-31.3,246.5-123.2,303.2c-60.6,39.1-131.1,39.1-4121.5,39.1C1019.4,2472.9,948.9,2472.9,888.3,2433.8z"/><path d="M1670.7,1651.4c-131-78.2-123.2,31.3-123.2-1946.3c0-1977.6-7.8-1868.1,123.2-1946.3c54.8-33.3,99.8-39.1,356-39.1s301.2,5.9,356,39.1c131,78.2,123.2-31.3,123.2,1950.2c0,1746.8-2,1797.7-39.1,1858.3c-64.5,107.6-119.3,123.2-444,123.2C1770.5,1690.5,1725.5,1684.6,1670.7,1651.4z"/><path d="M3646.4,1651.4c-131-78.2-123.2,31.3-123.2-1946.3c0-1977.6-7.8-1868.1,123.2-1946.3c54.8-33.3,99.8-39.1,356-39.1c256.2,0,301.2,5.9,356,39.1c131,78.2,123.2-31.3,123.2,1950.2c0,1746.8-2,1797.7-39.1,1858.3c-64.5,107.6-119.3,123.2-444,123.2C3746.1,1690.5,3701.2,1684.6,3646.4,1651.4z"/><path d="M5661.2,1651.4c-131.1-78.2-123.2,31.3-123.2-1946.3c0-1977.6-7.8-1868.1,123.2-1946.3c54.8-33.3,99.8-39.1,356-39.1s301.2,5.9,356,39.1c131.1,78.2,123.2-31.3,123.2,1950.2c0,1746.8-2,1797.7-39.1,1858.3c-64.6,107.6-119.3,123.2-444,123.2C5760.9,1690.5,5715.9,1684.6,5661.2,1651.4z"/><path d="M7636.8,1651.4c-131.1-78.2-123.2,31.3-123.2-1946.3c0-1977.6-7.8-1868.1,123.2-1946.3c54.8-33.3,99.8-39.1,356-39.1s301.3,5.9,356,39.1C8479.9-2163,8472-2272.5,8472-291c0,1746.8-1.9,1797.7-39.1,1858.3c-64.5,107.6-119.3,123.2-444,123.2C7736.6,1690.5,7691.6,1684.6,7636.8,1651.4z"/><path d="M888.3-2417.3c-93.9-56.7-123.2-131.1-123.2-307.1c0-117.4,9.8-168.2,39.1-215.2c80.2-133-269.9-123.2,4209.5-123.2c3986.5,0,4056.9,0,4117.6,39.1c91.9,56.7,123.2,131.1,123.2,303.2c0,172.1-31.3,246.5-123.2,303.2c-60.6,39.1-131.1,39.1-4121.5,39.1C1019.4-2378.2,948.9-2378.2,888.3-2417.3z"/><path d="M223.2-3238.9C115.6-3303.4,100-3360.1,100-3679c0-318.8,15.6-375.6,123.2-440.1c62.6-39.1,135-39.1,4776.8-39.1c4641.8,0,4714.2,0,4776.8,39.1c107.6,64.6,123.2,121.3,123.2,440.1c0,318.8-15.6,375.6-123.2,440.1c-62.6,39.1-135,39.1-4776.8,39.1C358.2-3199.7,285.8-3199.7,223.2-3238.9z"/></g></g>
</svg>