<?xml version="1.0" encoding="utf-8"?>
<!-- Svg Vector Icons : http://www.onlinewebfonts.com/icon -->
<!DOCTYPE svg PUBLIC "-//W3C//DTD SVG 1.1//EN" "http://www.w3.org/Graphics/SVG/1.1/DTD/svg11.dtd">
<svg version="1.1" xmlns="http://www.w3.org/2000/svg" xmlns:xlink="http://www.w3.org/1999/xlink" x="0px" y="0px" viewBox="0 0 1000 1000" enable-background="new 0 0 1000 1000" xml:space="preserve">
<metadata> Svg Vector Icons : http://www.onlinewebfonts.com/icon </metadata>
<g><path d="M288.3,665.3L146.6,523.6c-13.9-13.9-13.9-36.7,0-50.6c0,0,149-147.7,149.3-148l0.3-0.3c0.1-0.1,0.1-0.2,0.2-0.3c7.6-8,12.3-18.9,12.3-30.8c0-24.8-20.1-44.9-44.9-44.9c-14.6,0-27.5,7-35.7,17.7c-2,1.4-207.6,206.6-207.6,206.6c-13.9,13.9-13.9,36.7,0,50.6c0,0,205.9,205.6,208.2,207.3c8.2,10.3,20.9,17,35.1,17c24.8,0,44.9-20.1,44.9-44.9C308.7,687.2,300.5,673.3,288.3,665.3z"/><path d="M711.7,665.3l141.7-141.7c13.9-13.9,13.9-36.7,0-50.6c0,0-149-147.7-149.3-148l-0.3-0.3c-0.1-0.1-0.1-0.2-0.2-0.3c-7.6-8-12.3-18.9-12.3-30.8c0-24.8,20.1-44.9,44.9-44.9c14.6,0,27.5,7,35.7,17.7c2,1.4,207.6,206.6,207.6,206.6c13.9,13.9,13.9,36.7,0,50.6c0,0-205.9,205.6-208.2,207.3c-8.2,10.3-20.9,17-35.1,17c-24.8,0-44.9-20.1-44.9-44.9C691.3,687.2,699.5,673.3,711.7,665.3z"/><path d="M604.9,211.6c0-25.7-20.8-46.5-46.5-46.5c-37.1-2.4-47.2,46.5-47.2,46.5s-122.1,570.3-122.1,577c0,25.7,20.8,46.5,46.5,46.5c25.7,0,46.5-20.8,46.5-46.5h0.7C482.8,788.5,604.9,218.3,604.9,211.6z"/></g>
</svg>