<?xml version="1.0" encoding="utf-8"?>
<!-- Svg Vector Icons : http://www.onlinewebfonts.com/icon -->
<!DOCTYPE svg PUBLIC "-//W3C//DTD SVG 1.1//EN" "http://www.w3.org/Graphics/SVG/1.1/DTD/svg11.dtd">
<svg version="1.1" xmlns="http://www.w3.org/2000/svg" xmlns:xlink="http://www.w3.org/1999/xlink" x="0px" y="0px" viewBox="0 0 1000 1000" enable-background="new 0 0 1000 1000" xml:space="preserve">
<metadata> Svg Vector Icons : http://www.onlinewebfonts.com/icon </metadata>
<g><path d="M914.6,104.2H85.4C43.8,104.2,10,138,10,179.6v640.7c0,41.6,33.8,75.4,75.4,75.4h829.2c41.6,0,75.4-33.8,75.4-75.4V179.6C990,138,956.2,104.2,914.6,104.2z M944.9,815.1c0,20.5-16.6,37.1-37.1,37.1H92.2c-20.5,0-37.1-16.6-37.1-37.1V184.9c0-20.5,16.6-37.1,37.1-37.1h815.7c20.5,0,37.1,16.6,37.1,37.1L944.9,815.1L944.9,815.1z M644.5,485.4L644,485c-1.7-1.7-3.5-3-5.5-4.1L445.9,338.2c-4.1-4.9-10.4-8-17.4-8c-12.4,0-22.5,9.8-22.5,21.8v297.3c0,12.1,10.1,21.8,22.5,21.8c0.5,0,1,0,1.4,0c3.2-0.2,6.4-1,9.2-2.5c2.1-1.1,4-2.5,5.7-4.2l193.8-143.6c2-1,3.8-2.4,5.5-4.1l0.5-0.4c4.2-4.2,6.2-9.7,6.2-15.2c0-0.1,0-0.2,0-0.3c0-0.1,0-0.2,0-0.3C650.7,495,648.7,489.5,644.5,485.4z M451,604.3v-207l139.6,103.5L451,604.3z"/></g>
</svg>