<?xml version="1.0" encoding="UTF-8" standalone="no"?>
<!-- Svg Vector Icons : http://www.onlinewebfonts.com/icon -->

<svg
   version="1.1"
   x="0px"
   y="0px"
   viewBox="0 0 1000 1000"
   enable-background="new 0 0 1000 1000"
   xml:space="preserve"
   id="svg40"
   sodipodi:docname="9313492d85a66aa6cfec9656fbb95629.svg"
   inkscape:version="1.1 (1:1.1+202105261517+ce6663b3b7)"
   xmlns:inkscape="http://www.inkscape.org/namespaces/inkscape"
   xmlns:sodipodi="http://sodipodi.sourceforge.net/DTD/sodipodi-0.dtd"
   xmlns="http://www.w3.org/2000/svg"
   xmlns:svg="http://www.w3.org/2000/svg"><defs
   id="defs44"><linearGradient
     id="linearGradient2917"
     inkscape:swatch="solid"><stop
       style="stop-color:#000000;stop-opacity:1;"
       offset="0"
       id="stop2915" /></linearGradient></defs><sodipodi:namedview
   id="namedview42"
   pagecolor="#505050"
   bordercolor="#eeeeee"
   borderopacity="1"
   inkscape:pageshadow="0"
   inkscape:pageopacity="0"
   inkscape:pagecheckerboard="0"
   showgrid="false"
   inkscape:zoom="0.66"
   inkscape:cx="500"
   inkscape:cy="499.24242"
   inkscape:window-width="1920"
   inkscape:window-height="1028"
   inkscape:window-x="0"
   inkscape:window-y="26"
   inkscape:window-maximized="1"
   inkscape:current-layer="svg40" />
<metadata
   id="metadata2"> Svg Vector Icons : http://www.onlinewebfonts.com/icon </metadata>
<g
   id="g38"><g
     id="g6"><path
       d="M619.2,253.7h-7.3c22.2-25.8,35.8-59.3,35.8-96C647.6,76.2,581.4,10,500,10c-81.4,0-147.6,66.2-147.6,147.6c0,36.7,13.5,70.2,35.7,96h-7.3c-41.1,0-74.5,33.5-74.5,74.5v244.9c0,41.1,33.4,74.5,74.5,74.5h2.9v267.8c0,42.5,22.4,74.5,52,74.5h128.5c29.7,0,52.1-32,52.1-74.5V647.6h2.9c41.1,0,74.5-33.4,74.5-74.5V328.2C693.7,287.1,660.3,253.7,619.2,253.7z"
       id="path4" /></g><g
     id="g8" /><g
     id="g10" /><g
     id="g12" /><g
     id="g14" /><g
     id="g16" /><g
     id="g18" /><g
     id="g20" /><g
     id="g22" /><g
     id="g24" /><g
     id="g26" /><g
     id="g28" /><g
     id="g30" /><g
     id="g32" /><g
     id="g34" /><g
     id="g36" /></g>
<path
   style="fill:#ff0000;fill-opacity:1;fill-rule:evenodd;stroke:#ff0000;stroke-width:49.0446;stroke-linecap:round;stroke-linejoin:miter;stroke-miterlimit:2.8;stroke-dasharray:none;stroke-opacity:1;paint-order:markers stroke fill"
   d="M 32.565658,965.08321 970.33962,32.471939"
   id="path883"
   inkscape:connector-type="polyline"
   inkscape:connector-curvature="0" /></svg>
