<?xml version="1.0" encoding="utf-8"?>
<!-- Svg Vector Icons : http://www.onlinewebfonts.com/icon -->
<!DOCTYPE svg PUBLIC "-//W3C//DTD SVG 1.1//EN" "http://www.w3.org/Graphics/SVG/1.1/DTD/svg11.dtd">
<svg version="1.1" xmlns="http://www.w3.org/2000/svg" xmlns:xlink="http://www.w3.org/1999/xlink" x="0px" y="0px" viewBox="0 0 1000 1000" enable-background="new 0 0 1000 1000" xml:space="preserve">
<metadata> Svg Vector Icons : http://www.onlinewebfonts.com/icon </metadata>
<g><g transform="translate(0.000000,511.000000) scale(0.100000,-0.100000)"><path d="M5022.8,4982.5c-132.1-14.7-362.9-33.6-513.9-42c-346.1-18.9-413.2-35.7-524.4-138.4c-144.7-134.2-186.7-318.8-153.1-658.6l14.7-146.8l-88.1-62.9c-48.2-35.7-117.5-109.1-155.2-163.6c-255.9-379.7-48.2-899.9,570.5-1430.5c134.2-115.4,308.3-264.3,383.9-331.4c146.8-125.9,457.3-297.9,583.1-320.9c94.4-16.8,119.6-58.7,180.4-291.6c41.9-167.8,48.2-234.9,48.2-597.8c0-344-10.5-469.8-60.8-786.6c-60.8-392.2-79.7-826.4-48.2-1023.6l16.8-100.7l-148.9,75.5c-723.7,365-1610.9,394.3-2449.9,81.8c-367.1-138.4-904-425.8-981.7-528.6c-65-86-12.6-222.4,96.5-245.4c50.3-10.5,96.5,8.4,266.4,113.3c874.7,537,1772.4,685.9,2575.8,430c92.3-29.4,333.5-132.1,534.9-228.6c451-216,637.6-279,927.1-308.3c199.3-21,228.6-21,276.9,10.5c94.4,62.9,98.6,220.3,6.3,268.5c-25.2,14.7-130.1,33.6-234.9,41.9c-102.8,8.4-253.8,35.7-331.4,60.8c-123.8,37.8-146.8,54.5-172,111.2c-92.3,226.5-92.3,709,2.1,1315.2c100.7,652.3,77.6,1122.2-77.6,1608.8c-62.9,197.2-123.7,279-207.6,279c-83.9,0-314.6,88.1-432.1,163.6c-67.1,46.2-218.1,165.7-335.6,268.5c-117.5,102.8-270.6,237-339.8,297.8c-146.8,125.9-293.7,320.9-373.4,497.1c-46.1,98.6-54.5,140.5-46.1,243.3c6.3,77.6,23.1,138.4,44,159.4c31.5,31.5,35.7,31.5,46.2-6.3c6.3-21,35.7-86,62.9-144.7c98.6-197.2,253.8-253.8,644-230.7l243.3,14.7l-21-90.2c-46.1-205.6,18.9-641.9,111.2-734.1c60.8-60.8,174.1-52.4,226.5,14.7c52.4,67.1,54.6,100.7,10.5,220.2c-23.1,58.7-35.6,161.5-37.7,281.1c0,159.4,8.4,205.6,52.4,304.1c29.4,62.9,88.1,155.2,130.1,205.6c161.5,190.9,155.2,432.1-14.7,602c-107,107-251.7,155.2-490.8,161.5c-169.9,6.3-178.3,4.2-226.5-52.4c-60.8-71.3-65-140.5-12.6-203.5c33.6-39.8,67.1-50.3,230.7-62.9c237-21,297.9-52.4,297.9-159.4c0-67.1-8.4-77.6-98.6-117.5c-77.6-33.5-157.3-46.1-375.5-54.5c-304.1-10.5-373.4-2.1-396.4,52.4c-29.4,75.5-115.4,629.3-115.4,744.6c0,220.2,56.6,268.5,323,268.5c81.8,0,281.1,14.7,442.6,31.5c390.1,39.8,688,39.8,763.5,0c98.6-50.3,207.7-197.2,272.7-365c33.6-88.1,113.3-367.1,176.2-620.9c144.7-570.5,211.9-765.6,463.6-1336.1c813.8-1850,1222.9-3112.8,1365.5-4201.4c42-325.1,79.7-1076,60.8-1237.5c-16.8-165.7-50.3-241.2-153.1-352.4c-146.8-157.3-365-243.3-931.3-360.8c-398.5-81.8-576.8-134.2-748.8-220.2c-314.6-157.3-813.8-302.1-1277.4-371.3c-346.1-52.4-1233.4-52.4-1585.8,0c-471.9,71.3-851.6,169.9-1235.4,320.9c-251.7,100.7-323,104.9-379.7,23.1c-46.2-65-37.8-146.8,16.8-199.3c100.7-94.4,700.6-302.1,1130.6-390.2c480.3-98.6,748.8-125.9,1264.8-125.9c845.3,0,1499.8,130.1,2150,427.9c245.4,111.2,327.2,136.3,782.4,230.7c568.4,117.5,822.2,220.2,1021.5,411.1c237,226.6,283.2,404.8,264.3,1015.2c-46.1,1501.8-423.7,2842.2-1470.4,5201.9c-216,490.8-293.7,713.2-419.5,1220.8c-172,690.1-268.5,922.9-459.4,1099.1C5771.7,5009.7,5572.4,5043.3,5022.8,4982.5z"/><path d="M2610.6-2950.4c-33.6-42-41.9-75.5-33.6-119.6c18.9-88.1,46.1-113.3,167.8-148.9c520.2-151,1185.1-167.8,1684.3-42c232.8,58.7,300,107,300,214c0,138.4-109.1,184.6-295.8,121.7c-371.3-123.8-1136.9-123.8-1539.6-2.1C2734.4-2877,2663.1-2883.3,2610.6-2950.4z"/></g></g>
</svg>