<?xml version="1.0" encoding="utf-8"?>
<!DOCTYPE svg PUBLIC "-//W3C//DTD SVG 1.1//EN" "http://www.w3.org/Graphics/SVG/1.1/DTD/svg11.dtd">
<svg version="1.1" xmlns="http://www.w3.org/2000/svg" xmlns:xlink="http://www.w3.org/1999/xlink" x="0px" y="0px" viewBox="0 0 1000 1000" enable-background="new 0 0 1000 1000" xml:space="preserve">
<g><g transform="translate(0.000000,511.000000) scale(0.100000,-0.100000)"><path d="M4431.7,4992.4c-712.3-87.1-1489.8-365.9-2060.5-736.2c-196-128.5-198.2-128.5-261.4-93.7c-93.7,50.1-387.7,47.9-487.9-6.5c-98-52.3-614.2-568.5-666.5-666.5c-54.5-100.2-56.6-394.2-6.5-487.9c34.9-63.2,34.9-65.3-93.7-261.4c-389.9-599-660-1378.8-738.4-2123.7C81.9,278.9,103.7-411.5,160.4-714.3c122-666.5,361.6-1285.1,694.8-1797l126.3-196l-39.2-87.1c-52.3-108.9-43.6-355,15.2-468.3c47.9-98,564.1-612.1,664.3-666.5c100.2-54.5,394.2-56.6,487.9-6.6c63.2,34.9,65.3,34.9,261.4-93.7c450.9-291.9,1069.5-544.5,1614-657.8c742.7-152.5,1563.9-130.7,2291.4,63.2c437.8,115.4,975.8,352.9,1348.3,594.6c191.7,124.2,200.4,128.5,259.2,98c100.2-54.5,294.1-61,426.9-17.4c102.4,34.8,156.8,78.4,413.8,335.4c257,257,300.6,311.5,335.4,413.8c43.6,132.9,37,326.7-17.4,426.9c-30.5,58.8-26.1,67.5,98,259.2C9382.6-2141,9620-1603,9735.4-1165.2C9879.2-629.4,9935.8,89.4,9877,618.7c-80.6,751.5-348.5,1524.7-736.2,2121.5c-128.5,196-128.5,198.2-93.7,261.4c50.1,93.7,47.9,387.7-6.6,487.9s-568.5,616.4-666.5,664.3c-113.3,58.8-359.4,67.5-468.3,15.3l-87.1-39.2l-196,126.3c-511.9,333.3-1126.1,570.7-1797,697C5562.1,5001.1,4708.3,5025.1,4431.7,4992.4z M5390.1,4554.6c686.1-61,1435.4-311.5,1958.2-651.3l139.4-91.5l-690.5-690.5l-692.6-692.7l-145.9,61c-206.9,87.1-450.9,145.9-723.1,174.3c-383.3,43.6-838.6-24-1198-174.3l-145.9-61l-692.7,692.7l-690.5,690.5l139.4,91.5c230.9,150.3,642.5,342,956.2,444.3C4198.6,4543.7,4784.6,4611.3,5390.1,4554.6z M2769.8,2918.8c670.9-670.9,856-866.9,856-910.5c0-78.4-444.3-522.8-522.8-522.8c-43.6,0-235.2,178.6-910.5,856c-531.5,531.5-853.8,871.3-853.8,897.4c0,54.5,479.2,533.6,533.6,533.6C1898.5,3772.7,2238.3,3450.3,2769.8,2918.8z M8411.2,3526.5c143.8-143.8,246.1-263.6,246.1-287.5c0-26.1-322.4-365.9-853.8-897.4c-670.9-670.9-866.9-856-910.4-856c-78.4,0-522.8,444.3-522.8,522.8c0,43.6,178.6,235.2,856,910.5c531.5,531.5,871.2,853.8,897.4,853.8C8147.6,3772.7,8267.4,3670.3,8411.2,3526.5z M2621.7,1074c-150.3-359.4-217.8-814.6-174.3-1198c28.3-272.3,87.1-516.3,174.3-723.2l61-145.9L1990-1685.8l-690.5-690.4l-91.5,139.4c-50.1,76.2-148.1,257-217.8,400.8C480.5-794.9,400,396.5,763.7,1507.4c102.4,313.6,294,727.5,444.3,956.2l91.5,139.4l690.5-690.5l692.7-692.6L2621.7,1074z M8857.7,2348.2c148.1-250.5,274.4-538,376.8-845.1c300.6-917,296.2-1888.4-10.9-2809.8c-98-296.2-294.1-714.4-435.6-930l-91.5-139.4l-692.6,692.6l-692.6,692.7l54.5,119.8c80.6,183,156.8,490.1,185.1,751.5c41.4,381.2-28.3,842.9-176.4,1191.4l-61,141.6l688.3,692.6l688.3,692.7l39.2-50.1C8750.9,2522.4,8809.7,2433.1,8857.7,2348.2z M5542.5,2160.8c239.6-67.5,370.3-130.7,370.3-172.1c0-21.8,15.3-91.5,34.8-154.6c30.5-104.6,69.7-152.5,320.2-407.3c289.7-294.1,385.5-363.8,553.3-389.9c82.8-13.1,93.7-21.8,137.2-122c111.1-257,139.4-420.4,139.4-801.6c0-381.2-28.3-544.5-139.4-801.6c-43.6-100.2-54.5-108.9-137.2-122c-167.7-26.2-263.6-95.9-553.3-389.9c-250.5-254.8-289.7-302.8-320.2-407.3c-19.6-63.1-34.8-132.9-34.8-154.6c0-43.6-145.9-111.1-387.7-176.4c-244-67.5-810.3-67.5-1054.2,0c-241.8,65.4-387.7,132.9-387.7,176.4c0,21.8-15.3,91.5-34.9,154.6c-30.5,104.6-69.7,152.5-320.2,407.3c-289.7,294-385.5,363.7-553.3,389.9c-82.8,13-93.7,21.8-135,117.6c-115.4,265.7-143.8,426.9-143.8,805.9c0,379,28.3,540.2,143.8,808.1c41.4,93.7,52.3,102.4,137.2,115.4c152.5,24,250.5,91.5,527.1,365.9c270.1,267.9,344.1,374.6,370.3,533.6c13.1,82.8,24,93.7,115.4,132.9c283.2,122,487.9,156.8,873.4,145.9C5302.9,2210.9,5418.4,2197.9,5542.5,2160.8z M3390.5-1491.9c176.4-174.3,235.2-248.3,235.2-289.7c0-43.6-178.6-235.2-856-910.5c-531.5-531.5-871.3-853.8-897.4-853.8c-54.5,0-533.6,479.2-533.6,533.7c0,26.1,322.4,365.9,853.8,897.4c670.9,670.9,866.9,856,910.5,856C3142.2-1258.8,3218.5-1319.8,3390.5-1491.9z M7803.4-2114.8c531.5-531.5,853.8-871.2,853.8-897.4c0-54.5-479.2-533.7-533.6-533.7c-26.1,0-365.9,322.4-897.4,853.8c-670.9,670.9-856,866.9-856,910.5c0,78.4,444.3,522.8,522.8,522.8C6936.5-1258.8,7128.2-1437.4,7803.4-2114.8z M4353.3-2367.5c283.2-74.1,607.7-100.2,880-71.9c259.2,28.3,566.3,104.6,749.3,185.2l119.8,54.5l692.6-692.7l692.6-692.6l-139.4-91.5c-215.6-141.6-633.8-337.6-930.1-435.6c-921.4-309.3-1890.6-311.5-2814.2-8.7c-313.7,102.4-727.5,294.1-956.2,444.4l-139.4,91.5l690.5,690.4l692.7,692.7l145.9-61C4115.9-2295.6,4257.4-2343.5,4353.3-2367.5z"/></g></g>
</svg>
