<?xml version="1.0" encoding="utf-8"?>
<!-- Svg Vector Icons : http://www.onlinewebfonts.com/icon -->
<!DOCTYPE svg PUBLIC "-//W3C//DTD SVG 1.1//EN" "http://www.w3.org/Graphics/SVG/1.1/DTD/svg11.dtd">
<svg version="1.1" xmlns="http://www.w3.org/2000/svg" xmlns:xlink="http://www.w3.org/1999/xlink" x="0px" y="0px" viewBox="0 0 1000 1000" enable-background="new 0 0 1000 1000" xml:space="preserve">
<metadata> Svg Vector Icons : http://www.onlinewebfonts.com/icon </metadata>
<g><g transform="translate(0.000000,511.000000) scale(0.100000,-0.100000)"><path d="M2350.7,4212.6c-91.4-37.5-138.3-91.4-164.1-187.6c-49.2-180.5,84.4-349.3,274.3-349.3c89.1,0,117.2,11.7,185.2,79.7c65.6,65.6,79.7,98.5,79.7,175.8c0,131.3-51.6,222.7-150,269.6C2486.7,4243.1,2435.1,4245.4,2350.7,4212.6z M2505.5,3978.1c7-14.1,0-39.8-16.4-58.6c-42.2-39.8-103.2-4.7-84.4,46.9C2421.1,4008.6,2482,4015.6,2505.5,3978.1z"/><path d="M7801.7,3804.6l-58.6-56.3V2726.2c0-989.4,2.3-1022.2,46.9-1066.7c25.8-25.8,77.4-46.9,117.2-46.9s91.4,21.1,117.2,46.9c44.6,44.5,46.9,77.4,46.9,1076.1v1031.6l-60.9,46.9C7928.3,3877.3,7872,3875,7801.7,3804.6z"/><path d="M1509,3814c-185.2-56.3-307.1-215.7-307.1-405.6c0-445.5,602.5-593.2,794.8-196.9c63.3,131.3,63.3,257.9,0,386.8C1914.6,3767.1,1687.2,3865.6,1509,3814z M1696.6,3450.6c39.8-49.2,0-114.9-72.7-114.9c-72.7,0-112.5,65.6-72.7,114.9c18.8,21.1,49.2,37.5,72.7,37.5C1647.4,3488.1,1677.8,3471.7,1696.6,3450.6z"/><path d="M639.2,2974.7C313.3,2902,100,2641.8,100,2322.9c0-325.9,192.3-569.7,511.1-651.8c304.8-77.4,602.5,65.6,757.3,363.4c44.5,82.1,56.3,143,56.3,281.3c-2.3,201.6-63.3,351.7-204,485.3C1077.7,2939.5,822.1,3014.5,639.2,2974.7z M922.9,2608.9c215.7-112.5,215.7-473.6,0-586.1c-145.4-75-347-21.1-436.1,114.9C306.3,2414.3,627.5,2761.3,922.9,2608.9z"/><path d="M2493.7,2219.7C1631,2076.7,1019,1270.2,1110.5,400.4c72.7-694,560.3-1263.7,1233.2-1439.5c253.2-65.6,597.8-65.6,841.7,2.4c447.8,121.9,830,424.3,1041,818.2c243.8,457.2,410.3,471.3,628.3,56.3c311.8-593.2,848.7-926.1,1493.4-923.7c651.8,0,1207.4,347,1491.1,928.4C7963.5,98,8008,290.2,8008,557.5c2.4,365.7-79.7,640-279,940.1c-253.2,384.5-668.2,647.1-1134.7,722.1C6406.7,2250.2,2678.9,2250.2,2493.7,2219.7z M6814.6,1816.5c956.6-382.2,1160.5-1613,372.8-2269.5C6751.3-816.4,6113.6-853.9,5633-542.1c-199.3,128.9-358.7,307.1-471.2,522.8c-178.2,340-365.8,490-609.6,490c-246.2-2.3-429-152.4-609.6-501.7C3708.2-481.1,3260.4-755.4,2754-755.4c-590.8,0-1132.4,429-1282.4,1019.9c-143,562.7,143,1200.4,661.2,1472.3c309.5,161.8,196.9,154.7,2468.7,150.1l2051.4-4.7L6814.6,1816.5z"/><path d="M9119.3,641.9c-300.1-84.4-504.1-415-436.1-712.7c112.6-511.1,722.1-670.5,1066.7-279C9860.1-225.6,9900-110.7,9900,67.5C9897.7,459,9501.4,749.7,9119.3,641.9z M9433.4,283.2c75-44.5,138.3-159.4,138.3-248.5c0-86.8-96.1-211-192.2-246.2c-112.5-44.6-194.6-21.1-293.1,77.4C8861.4,90.9,9156.8,447.3,9433.4,283.2z"/><path d="M4453.7-291.2c-49.2-39.9-532.2-1069.1-532.2-1139.4c0-30.5,25.8-79.7,58.6-110.2l56.3-58.6h513.4c485.3,0,518.1,2.3,576.8,49.2c39.8,30.5,60.9,70.3,60.9,112.5c0,77.4-475.9,1104.3-532.2,1146.5c-21.1,14.1-68,28.1-100.8,28.1S4474.8-277.2,4453.7-291.2z M4648.3-1018c42.2-93.8,82.1-185.2,86.8-199.3c9.4-23.4-35.2-30.5-180.5-30.5c-105.5,0-187.6,9.4-182.9,18.8c65.6,164.1,171.1,379.8,182.9,379.8C4563.9-849.2,4606.1-926.6,4648.3-1018z"/><path d="M7799.3-530.4c-42.2-32.8-44.6-82.1-56.3-1319.9l-11.7-1284.8l-56.3-124.3c-68-152.4-243.8-314.2-393.9-365.8c-91.4-30.5-234.5-37.5-853.4-37.5c-827.6,0-909.7,11.7-1146.5,164.1c-211,136-396.2,396.2-454.8,640l-14.1,63.3h211c243.8,0,304.8,35.2,304.8,171.1c0,154.7-14.1,157.1-698.7,157.1h-611.9l-49.2-63.3c-58.6-75-46.9-161.8,28.1-222.7c37.5-32.8,91.4-42.2,262.6-42.2h215.7l28.1-136c93.8-459.5,478.3-867.5,965.9-1026.9c189.9-61,1538-79.7,1788.8-23.4c370.4,82.1,644.7,330.6,766.7,691.6c44.6,136,46.9,196.9,46.9,1420.8c0,1247.3,0,1277.7-46.9,1324.6C7970.5-490.5,7865-483.5,7799.3-530.4z"/><path d="M8680.9-790.6c-185.2-84.4-288.4-239.2-288.4-433.7c0-152.4,42.2-246.2,157.1-347c377.5-330.6,944.8,117.2,710.4,560.3C9149.8-804.7,8880.1-701.5,8680.9-790.6z M8952.8-1165.7c35.2-53.9,35.2-63.3,0-117.2c-25.8-39.9-60.9-58.6-103.1-58.6c-82.1,0-121.9,37.5-121.9,117.2c0,79.7,39.9,117.2,121.9,117.2C8891.9-1107.1,8927-1125.8,8952.8-1165.7z"/></g></g>
</svg>