<?xml version="1.0" encoding="UTF-8" standalone="no"?>
<!-- Svg Vector Icons : http://www.onlinewebfonts.com/icon -->

<svg
   version="1.1"
   x="0px"
   y="0px"
   viewBox="0 0 1000 1000"
   enable-background="new 0 0 1000 1000"
   xml:space="preserve"
   id="svg14"
   sodipodi:docname="snail.svg"
   inkscape:version="1.1 (1:1.1+202105261517+ce6663b3b7)"
   xmlns:inkscape="http://www.inkscape.org/namespaces/inkscape"
   xmlns:sodipodi="http://sodipodi.sourceforge.net/DTD/sodipodi-0.dtd"
   xmlns="http://www.w3.org/2000/svg"
   xmlns:svg="http://www.w3.org/2000/svg"><defs
   id="defs18" /><sodipodi:namedview
   id="namedview16"
   pagecolor="#505050"
   bordercolor="#eeeeee"
   borderopacity="1"
   inkscape:pageshadow="0"
   inkscape:pageopacity="0"
   inkscape:pagecheckerboard="0"
   showgrid="false"
   inkscape:zoom="0.66"
   inkscape:cx="500"
   inkscape:cy="499.24242"
   inkscape:window-width="1920"
   inkscape:window-height="1028"
   inkscape:window-x="0"
   inkscape:window-y="26"
   inkscape:window-maximized="1"
   inkscape:current-layer="svg14" />
<metadata
   id="metadata2"> Svg Vector Icons : http://www.onlinewebfonts.com/icon </metadata>
<g
   id="g12"
   transform="matrix(0.55077485,-0.30453477,0.30453477,0.55077485,-79.838882,396.67671)"><g
     transform="matrix(0.1,0,0,-0.1,0,511)"
     id="g10"><path
       d="M 2213,2963.3 C 1877.6,2898.6 1608.9,2801.6 1344.2,2652.1 719.8,2300.5 261.2,1676.2 131.9,1007.4 89.5,789.2 89.5,370.9 131.9,132.5 c 95,-533.4 327.3,-957.7 749.6,-1363.9 258.6,-248.5 448.6,-369.7 786,-493 30.3,-12.1 -30.3,-40.4 -242.5,-113.2 -361.7,-127.3 -590,-240.4 -705.2,-353.6 -115.2,-111.1 -121.2,-167.7 -26.3,-240.4 165.7,-127.3 606.2,-216.2 1412.4,-286.9 499.1,-42.4 2232.7,-62.6 2834.8,-30.3 1105.2,58.6 2113.5,204.1 2412.5,349.5 204.1,99 531.4,430.4 642.5,652.6 22.2,44.5 84.9,204.1 135.4,353.6 224.3,644.6 434.4,911.3 986,1252.7 394,244.5 499.1,345.5 563.7,535.4 88.9,274.8 48.5,567.8 -113.1,812.3 -38.4,58.6 -70.7,113.1 -70.7,121.2 2,46.5 208.1,339.4 260.6,371.8 129.3,78.8 177.8,240.4 115.2,390 -42.4,103.1 -121.2,153.6 -238.4,153.6 -86.9,0 -111.1,-10.1 -167.7,-66.7 -38.4,-38.4 -74.8,-95 -82.8,-127.3 -16.2,-64.6 -246.5,-432.4 -270.8,-432.4 -8.1,0 -64.6,22.2 -123.2,46.5 -60.6,26.3 -129.3,56.6 -155.6,66.7 -44.5,18.2 -42.4,22.2 72.7,194 64.7,97 149.5,198 187.9,224.3 183.9,123.3 165.7,402.1 -34.3,499.1 -56.6,28.3 -101,36.4 -147.5,28.3 -84.8,-18.2 -187.9,-119.2 -216.2,-212.2 -12.1,-40.4 -107.1,-204.1 -212.2,-365.7 l -189.9,-295 -159.6,-24.2 c -377.8,-54.6 -646.6,-177.8 -893,-408.2 C 7042.2,1183.2 6508.7,437.6 6203.6,-79.6 6120.7,-219 6050,-336.2 6045.9,-342.3 c -14.2,-18.2 -42.4,52.5 -137.4,331.4 C 5540.8,1084.2 5072,1856 4476,2343 c -365.7,299 -697.1,466.7 -1149.7,581.9 -173.8,42.4 -260.6,50.5 -588,58.6 -268.7,4 -426.3,-2 -525.3,-20.2 z m 899.1,-303.1 C 3813.2,2510.7 4579,1920.7 4999.3,1207.4 5136.7,973 5407.5,445.7 5464,304.2 c 78.8,-202.1 339.5,-1093.1 325.3,-1107.3 -12.1,-12.1 -1828.6,-204.1 -1828.6,-192 0,2 28.3,44.5 62.6,95 95,141.4 212.2,408.2 262.7,598.1 40.4,145.5 46.5,222.3 48.5,505.1 0,286.9 -6.1,357.6 -46.5,505.1 -200,729.4 -747.6,1275 -1477,1468.9 -167.7,44.4 -236.4,52.5 -497,52.5 -262.7,0 -329.3,-6.1 -503.1,-52.5 -489,-129.3 -913.3,-430.4 -1188.1,-842.6 -54.6,-82.8 -105.1,-155.6 -109.1,-159.6 -6.1,-6.1 18.2,52.5 48.5,131.3 286.9,689 982,1214.3 1784.1,1349.7 222.3,36.6 600.1,38.7 765.8,4.3 z M 2748.4,1807.5 C 3296,1668.1 3704.1,1268 3863.7,716.4 c 40.4,-135.4 46.5,-206.1 46.5,-472.8 0,-367.7 -24.3,-476.8 -165.7,-767.8 -80.8,-161.6 -123.2,-220.2 -276.8,-375.8 -155.6,-153.6 -214.2,-198 -375.8,-276.8 -280.9,-139.4 -458.7,-179.8 -777.9,-179.8 -319.2,0 -497.1,40.4 -777.9,179.8 -161.6,78.8 -220.2,123.2 -375.8,276.8 -153.5,155.6 -196,214.2 -276.8,375.8 -141.5,291 -165.7,400.1 -165.7,767.9 0,357.6 24.2,476.8 149.5,737.5 220.2,460.7 600.1,747.6 1123.4,850.6 179.8,34.3 577.9,22.2 757.7,-24.3 z"
       id="path4" /><path
       d="M 2112,1395.4 C 1303.8,1233.8 919.9,312.4 1374.5,-368.5 1590.7,-691.8 1922,-869.6 2316,-871.7 c 323.3,-2 575.9,103.1 808.2,335.4 311.2,311.1 416.2,737.5 282.9,1153.7 -171.7,539.5 -749.6,887.1 -1295.1,778 z m 559.6,-438.5 c 72.7,-34.3 165.7,-97 208.1,-139.4 280.8,-286.9 268.7,-850.6 -22.2,-1119.4 -113.1,-103 -220.2,-153.5 -396,-181.8 -367.7,-58.6 -697.1,103.1 -836.5,412.2 -50.5,109.1 -56.6,145.5 -56.6,335.4 0,173.8 8.1,234.4 46.5,329.3 48.5,125.3 192,288.9 301.1,345.5 216.2,111.1 539.4,119.2 755.6,18.2 z"
       id="path6" /><path
       d="M 2152.4,629.6 C 2021,571 1920,419.4 1920,284.1 c 0,-194 189.9,-383.9 383.9,-383.9 90.9,0 218.2,60.6 286.9,133.4 175.8,189.9 111.1,482.9 -135.4,596.1 -103,48.4 -200,48.4 -303,-0.1 z"
       id="path8" /></g></g>
<path
   style="fill:none;stroke:#000000;stroke-width:22.9;stroke-linecap:round;stroke-linejoin:miter;stroke-opacity:1;stroke-miterlimit:4;stroke-dasharray:none"
   d="m 33.465299,960.74265 c 2.152398,-2.78783 4.524418,-5.41914 6.457196,-8.36348 5.729597,-8.72833 0.371196,-3.53983 6.121317,-10.72748 1.908079,-2.3851 6.132684,-4.80332 7.575758,-7.57576 1.031194,-1.98114 -1.599962,-1.05208 1.216449,-2.61221 1.279004,-0.7085 7.642517,-4.19277 8.256947,-4.39768 1.43777,-0.47948 3.108982,0.47921 4.546841,0 7.432482,-2.47712 21.087059,-11.31074 28.768736,-15.15152 1.269631,-0.6348 1.74315,-2.37321 3.011207,-3.01116 5.51812,-2.77608 19.07929,-10.8164 24.14833,-12.08366 6.31012,-1.57753 13.96853,-3.34393 19.51553,-7.50418 8.65882,-6.49412 23.27338,-21.15689 28.67589,-30.11937 2.71954,-4.51159 4.3498,-9.30405 7.55707,-13.58042 2.33152,-3.10869 1.39757,0.15678 4.54546,-4.54545 1.15165,-1.72031 0.58702,-4.17247 1.51515,-6.02297 2.83242,-5.6473 12.46838,-12.70752 17.36894,-16.05197 2.91991,-1.99272 0.31999,-3.09374 1.51339,-5.40494 3.19506,-6.18769 13.40928,-10.15909 18.79171,-13.30169 4.86188,-2.83866 15.65023,-18.27128 18.10072,-19.6154 4.79879,-2.6322 11.33986,-6.97313 16.39829,-8.43228 2.30278,-0.66426 3.8632,-0.48704 5.88194,-1.49638 1.66696,-0.83345 2.67315,-3.17887 4.22558,-4.22558 2.4064,-1.62249 3.07912,-0.27268 4.88706,-1.25973 4.3802,-2.39136 8.84596,-5.25569 12.89812,-7.28177 1.83229,-0.91614 1.73941,-2.7512 2.86625,-4.23676 0.59637,-0.78622 2.63622,-0.83352 3.44016,-1.2355 1.73954,-0.8698 2.60959,-3.50922 4.35837,-4.35837 4.86331,-2.36146 10.016,-5.53314 14.71447,-8.83974 1.92706,-1.35619 4.67556,-1.18126 6.55777,-2.13392 7.18974,-3.63901 15.16577,-6.81011 22.42746,-10.47484 4.13424,-2.08641 6.96836,-7.72248 11.22751,-9.77746 5.27763,-2.54639 9.95433,-7.08475 14.86844,-10.32308 4.3051,-2.837 9.32961,-5.43161 13.61648,-7.57511 1.77282,-0.88644 2.84293,-3.39476 4.49866,-4.49857 7.74091,-5.16055 15.59853,-9.31787 23.76959,-13.40313 4.99855,-2.49912 8.50308,-8.7205 13.74104,-11.08824 3.96376,-1.79176 7.86869,-3.30013 12.1854,-5.45849 1.27768,-0.63884 1.75424,-2.38821 3.0303,-3.0303 0.81563,-0.41041 1.93487,0.43215 2.73918,0 2.49505,-1.34057 2.8554,-3.38691 5.9329,-4.44576 3.52559,-1.21304 14.26085,-4.87614 17.18084,-6.71988 0.57699,-0.36433 -0.40666,-1.49919 0,-2.04718 0.84599,-1.13999 2.00762,-2.00762 3.01144,-3.01143 6.76037,-6.76038 20.31023,-19.10491 28.28258,-23.05113 7.25258,-3.58995 13.93657,-8.08307 21.35546,-11.76037 2.69319,-1.33492 5.75445,-0.79384 8.63888,-2.71477 5.45329,-3.6317 8.94382,-9.83727 14.4497,-12.70585 0.2217,-0.11551 2.34487,0.10314 2.63691,0 6.78994,-2.39814 13.89304,-4.58386 20.01731,-8.53623 2.37964,-1.53574 4.81799,-4.81795 6.77009,-6.7701 0.45486,-0.45487 1.81946,-0.90973 1.3646,-1.36459 -0.45487,-0.45487 -1.93997,1.65226 -1.3646,1.36459 1.4669,-0.7334 2.68517,-1.88918 4.0938,-2.7291 4.95102,-2.95213 9.27882,-5.58707 14.04483,-8.74282 5.46143,-3.61622 9.7664,-9.27701 14.89517,-13.38002 7.76678,-6.21342 17.20604,-11.14543 24.24242,-18.18182 0.79856,-0.79855 0.7166,-2.23175 1.51516,-3.0303 8.23511,-8.23511 20.06433,-13.11509 27.27568,-22.73023 6.754,-9.00533 13.9223,-16.56854 21.01801,-25.41365 2.17596,-2.71243 5.64802,-4.68415 7.57576,-7.57576 2.95646,-4.43469 16.02717,-23.83023 19.50415,-25.56448 1.41649,-0.70652 3.24225,-0.54722 4.50505,-1.50165 0.006,-0.005 3.02875,-6.06564 3.04482,-6.08974 3.70273,-5.5541 31.10492,-34.67161 32.66065,-35.67181 8.17389,-5.2551 5.05399,-0.26463 10.56796,-3.03031 1.27688,-0.64045 1.84324,-2.23563 3.0303,-3.0303 2.91477,-1.95127 7.37398,-2.51248 10.49685,-4.50976 4.02175,-2.57218 3.54769,-8.07006 8.26998,-10.83041 2.2233,-1.29959 5.27238,-0.36346 7.57576,-1.51515 8.12114,-4.06057 21.44636,-17.98129 28.60191,-24.11564 5.78597,-4.96023 8.33206,-6.05418 13.63294,-10.08005 11.85161,-9.00095 23.64759,-21.63957 35.51553,-30.93455 10.61775,-8.31584 23.18937,-14.66164 31.54472,-25.80211 9.28943,-12.38591 8.15786,-19.02878 13.65236,-31.87889 0.99281,-2.3219 3.7469,-3.66494 4.54546,-6.06061 0.79855,-2.39566 -0.49525,-5.09954 0,-7.57576 2.76517,-13.82588 9.38613,-39.1918 16.69533,-51.3738 2.11419,-3.52364 6.62284,-5.79367 9.09091,-9.0909 5.01717,-6.70272 9.17127,-12.96436 13.66485,-19.75412 2.68823,-4.0619 6.63356,-7.46605 8.79128,-11.57213 3.17097,-6.03428 14.24747,-12.73223 19.37977,-17.86453"
   id="path1107" /></svg>
