<?xml version="1.0" encoding="utf-8"?>
<!-- Svg Vector Icons : http://www.onlinewebfonts.com/icon -->
<!DOCTYPE svg PUBLIC "-//W3C//DTD SVG 1.1//EN" "http://www.w3.org/Graphics/SVG/1.1/DTD/svg11.dtd">
<svg version="1.1" xmlns="http://www.w3.org/2000/svg" xmlns:xlink="http://www.w3.org/1999/xlink" x="0px" y="0px" viewBox="0 0 1000 1000" enable-background="new 0 0 1000 1000" xml:space="preserve">
<metadata> Svg Vector Icons : http://www.onlinewebfonts.com/icon </metadata>
<g><g transform="translate(0.000000,512.000000) scale(0.100000,-0.100000)"><path d="M808.2,120v-4900h162.7h162.7V120v4900H970.9H808.2V120z"/><path d="M4923.4,120v-4900h153.1h153.1V120v4900h-153.1h-153.1V120z"/><path d="M1612.1,3909.8v-153.1h1406.8h1406.8v153.1V4063H3018.9H1612.1V3909.8z"/><path d="M6033.6-1382.5V-4780h153.1h153.1v3397.5v3397.5h-153.1h-153.1V-1382.5z"/><path d="M8866.4-1382.5V-4780h162.7h162.7v3397.5v3397.5h-162.7h-162.7V-1382.5z"/><path d="M1612.1,1383.3v-153.1h1406.8h1406.8v153.1v153.1H3018.9H1612.1V1383.3z"/><path d="M6684.4,751.6V598.5h918.8h918.7v153.1v153.1h-918.7h-918.8V751.6z"/><path d="M6684.4-664.8v-153.1h918.8h918.7v153.1v153.1h-918.7h-918.8V-664.8z"/><path d="M1612.1-1143.3v-153.1h1406.8h1406.8v153.1v153.1H3018.9H1612.1V-1143.3z"/><path d="M6684.4-2253.4v-153.1h918.8h918.7v153.1v153.1h-918.7h-918.8V-2253.4z"/><path d="M1612.1-3669.8V-3823h1406.8h1406.8v153.1v153.1H3018.9H1612.1V-3669.8z"/><path d="M6684.4-3832.5v-162.7h918.8h918.7v162.7v162.7h-918.7h-918.8V-3832.5z"/></g></g>
</svg>